<?xml version="1.0" encoding="UTF-8"?>
<!DOCTYPE svg PUBLIC "-//W3C//DTD SVG 1.1//EN" "http://www.w3.org/Graphics/SVG/1.1/DTD/svg11.dtd">
<svg xmlns="http://www.w3.org/2000/svg" version="1.1" width="384px" height="384px" style="shape-rendering:geometricPrecision; text-rendering:geometricPrecision; image-rendering:optimizeQuality; fill-rule:evenodd; clip-rule:evenodd" xmlns:xlink="http://www.w3.org/1999/xlink">
<g><path style="opacity:0.004" fill="#fefffe" d="M -0.5,-0.5 C 0.166667,-0.5 0.833333,-0.5 1.5,-0.5C 1.5,0.833333 0.833333,1.5 -0.5,1.5C -0.5,0.833333 -0.5,0.166667 -0.5,-0.5 Z"/></g>
<g><path style="opacity:0.004" fill="#fefffe" d="M 98.5,-0.5 C 98.8333,-0.5 99.1667,-0.5 99.5,-0.5C 99.3147,0.170143 98.9813,0.170143 98.5,-0.5 Z"/></g>
<g><path style="opacity:0.004" fill="#fefffe" d="M 111.5,-0.5 C 112.167,-0.5 112.833,-0.5 113.5,-0.5C 112.833,0.833333 112.167,0.833333 111.5,-0.5 Z"/></g>
<g><path style="opacity:0.004" fill="#fefffe" d="M 115.5,-0.5 C 116.167,-0.5 116.833,-0.5 117.5,-0.5C 116.833,0.833333 116.167,0.833333 115.5,-0.5 Z"/></g>
<g><path style="opacity:0.004" fill="#fefffe" d="M 293.5,-0.5 C 293.833,-0.5 294.167,-0.5 294.5,-0.5C 294.315,0.170143 293.981,0.170143 293.5,-0.5 Z"/></g>
<g><path style="opacity:0.004" fill="#fefffe" d="M 374.5,-0.5 C 374.833,-0.5 375.167,-0.5 375.5,-0.5C 375.157,1.22516 374.157,1.72516 372.5,1C 373.416,0.721579 374.082,0.221579 374.5,-0.5 Z"/></g>
<g><path style="opacity:0.004" fill="#fefffe" d="M 378.5,-0.5 C 379.167,-0.5 379.833,-0.5 380.5,-0.5C 380.214,1.93268 379.548,1.93268 378.5,-0.5 Z"/></g>
<g><path style="opacity:0.005" fill="#fefffe" d="M 381.5,-0.5 C 382.167,-0.5 382.833,-0.5 383.5,-0.5C 383.5,-0.166667 383.5,0.166667 383.5,0.5C 382.075,2.03105 381.409,1.69772 381.5,-0.5 Z"/></g>
<g><path style="opacity:0.004" fill="#fefffe" d="M 14.5,1.5 C 14.8966,0.474981 15.5632,0.308314 16.5,1C 15.9056,1.46434 15.2389,1.63101 14.5,1.5 Z"/></g>
<g><path style="opacity:0.004" fill="#fefffe" d="M 18.5,1.5 C 18.8966,0.474981 19.5632,0.308314 20.5,1C 19.9056,1.46434 19.2389,1.63101 18.5,1.5 Z"/></g>
<g><path style="opacity:0.004" fill="#fefffe" d="M 22.5,1.5 C 22.8966,0.474981 23.5632,0.308314 24.5,1C 23.9056,1.46434 23.2389,1.63101 22.5,1.5 Z"/></g>
<g><path style="opacity:0.004" fill="#fefffe" d="M 26.5,1.5 C 26.8966,0.474981 27.5632,0.308314 28.5,1C 27.9056,1.46434 27.2389,1.63101 26.5,1.5 Z"/></g>
<g><path style="opacity:0.004" fill="#fefffe" d="M 31.5,1.5 C 31.8966,0.474981 32.5632,0.308314 33.5,1C 32.9056,1.46434 32.2389,1.63101 31.5,1.5 Z"/></g>
<g><path style="opacity:0.004" fill="#fefffe" d="M 35.5,1.5 C 35.8966,0.474981 36.5632,0.308314 37.5,1C 36.9056,1.46434 36.2389,1.63101 35.5,1.5 Z"/></g>
<g><path style="opacity:0.004" fill="#fefffe" d="M 39.5,1.5 C 39.8966,0.474981 40.5632,0.308314 41.5,1C 40.9056,1.46434 40.2389,1.63101 39.5,1.5 Z"/></g>
<g><path style="opacity:0.004" fill="#fefffe" d="M 145.5,1.5 C 145.897,0.474981 146.563,0.308314 147.5,1C 146.906,1.46434 146.239,1.63101 145.5,1.5 Z"/></g>
<g><path style="opacity:0.004" fill="#fefffe" d="M 149.5,1.5 C 149.897,0.474981 150.563,0.308314 151.5,1C 150.906,1.46434 150.239,1.63101 149.5,1.5 Z"/></g>
<g><path style="opacity:0.004" fill="#fefffe" d="M 153.5,1.5 C 153.897,0.474981 154.563,0.308314 155.5,1C 154.906,1.46434 154.239,1.63101 153.5,1.5 Z"/></g>
<g><path style="opacity:0.004" fill="#fefffe" d="M 157.5,1.5 C 157.897,0.474981 158.563,0.308314 159.5,1C 158.906,1.46434 158.239,1.63101 157.5,1.5 Z"/></g>
<g><path style="opacity:0.004" fill="#fefffe" d="M 161.5,1.5 C 161.897,0.474981 162.563,0.308314 163.5,1C 162.906,1.46434 162.239,1.63101 161.5,1.5 Z"/></g>
<g><path style="opacity:0.004" fill="#fefffe" d="M 166.5,1.5 C 166.897,0.474981 167.563,0.308314 168.5,1C 167.906,1.46434 167.239,1.63101 166.5,1.5 Z"/></g>
<g><path style="opacity:0.004" fill="#fefffe" d="M 170.5,1.5 C 170.897,0.474981 171.563,0.308314 172.5,1C 171.906,1.46434 171.239,1.63101 170.5,1.5 Z"/></g>
<g><path style="opacity:0.004" fill="#fefffe" d="M 174.5,1.5 C 174.897,0.474981 175.563,0.308314 176.5,1C 175.906,1.46434 175.239,1.63101 174.5,1.5 Z"/></g>
<g><path style="opacity:0.004" fill="#fefffe" d="M 179.5,0.5 C 180.833,1.16667 180.833,1.16667 179.5,0.5 Z"/></g>
<g><path style="opacity:0.004" fill="#fefffe" d="M 182.5,1.5 C 183.251,0.426544 184.251,0.259877 185.5,1C 184.552,1.48278 183.552,1.64945 182.5,1.5 Z"/></g>
<g><path style="opacity:0.004" fill="#fefffe" d="M 187.5,1.5 C 187.897,0.474981 188.563,0.308314 189.5,1C 188.906,1.46434 188.239,1.63101 187.5,1.5 Z"/></g>
<g><path style="opacity:0.004" fill="#fefffe" d="M 191.5,1.5 C 191.897,0.474981 192.563,0.308314 193.5,1C 192.906,1.46434 192.239,1.63101 191.5,1.5 Z"/></g>
<g><path style="opacity:0.004" fill="#fefffe" d="M 195.5,1.5 C 195.897,0.474981 196.563,0.308314 197.5,1C 196.906,1.46434 196.239,1.63101 195.5,1.5 Z"/></g>
<g><path style="opacity:0.004" fill="#fefffe" d="M 200.5,0.5 C 201.833,1.16667 201.833,1.16667 200.5,0.5 Z"/></g>
<g><path style="opacity:0.004" fill="#fefffe" d="M 203.5,1.5 C 204.251,0.426544 205.251,0.259877 206.5,1C 205.552,1.48278 204.552,1.64945 203.5,1.5 Z"/></g>
<g><path style="opacity:0.004" fill="#fefffe" d="M 208.5,1.5 C 208.897,0.474981 209.563,0.308314 210.5,1C 209.906,1.46434 209.239,1.63101 208.5,1.5 Z"/></g>
<g><path style="opacity:0.004" fill="#fefffe" d="M 213.5,0.5 C 214.833,1.16667 214.833,1.16667 213.5,0.5 Z"/></g>
<g><path style="opacity:0.004" fill="#fefffe" d="M 216.5,1.5 C 217.251,0.426544 218.251,0.259877 219.5,1C 218.552,1.48278 217.552,1.64945 216.5,1.5 Z"/></g>
<g><path style="opacity:0.004" fill="#fefffe" d="M 221.5,0.5 C 222.833,1.16667 222.833,1.16667 221.5,0.5 Z"/></g>
<g><path style="opacity:0.004" fill="#fefffe" d="M 225.5,1.5 C 225.897,0.474981 226.563,0.308314 227.5,1C 226.906,1.46434 226.239,1.63101 225.5,1.5 Z"/></g>
<g><path style="opacity:0.004" fill="#fefffe" d="M 229.5,1.5 C 229.897,0.474981 230.563,0.308314 231.5,1C 230.906,1.46434 230.239,1.63101 229.5,1.5 Z"/></g>
<g><path style="opacity:0.004" fill="#fefffe" d="M 234.5,0.5 C 235.833,1.16667 235.833,1.16667 234.5,0.5 Z"/></g>
<g><path style="opacity:0.004" fill="#fefffe" d="M 237.5,1.5 C 238.251,0.426544 239.251,0.259877 240.5,1C 239.552,1.48278 238.552,1.64945 237.5,1.5 Z"/></g>
<g><path style="opacity:0.004" fill="#fefffe" d="M 343.5,1.5 C 343.897,0.474981 344.563,0.308314 345.5,1C 344.906,1.46434 344.239,1.63101 343.5,1.5 Z"/></g>
<g><path style="opacity:0.004" fill="#fefffe" d="M 348.5,0.5 C 349.833,1.16667 349.833,1.16667 348.5,0.5 Z"/></g>
<g><path style="opacity:0.004" fill="#fefffe" d="M 351.5,1.5 C 352.251,0.426544 353.251,0.259877 354.5,1C 353.552,1.48278 352.552,1.64945 351.5,1.5 Z"/></g>
<g><path style="opacity:0.004" fill="#fefffe" d="M 356.5,0.5 C 357.833,1.16667 357.833,1.16667 356.5,0.5 Z"/></g>
<g><path style="opacity:0.004" fill="#fefffe" d="M 360.5,1.5 C 360.897,0.474981 361.563,0.308314 362.5,1C 361.906,1.46434 361.239,1.63101 360.5,1.5 Z"/></g>
<g><path style="opacity:0.004" fill="#fefffe" d="M 95.5,6.5 C 96.2506,5.42654 97.2506,5.25988 98.5,6C 97.552,6.48278 96.552,6.64945 95.5,6.5 Z"/></g>
<g><path style="opacity:0.408" fill="#adcbe9" d="M 124.5,13.5 C 110.245,9.6093 95.912,8.6093 81.5,10.5C 73.9509,11.4087 66.6176,13.0754 59.5,15.5C 65.3774,12.1598 71.5441,9.4931 78,7.5C 83.176,8.45671 88.3426,8.12338 93.5,6.5C 97.0316,7.8031 100.532,7.8031 104,6.5C 110.365,8.71708 116.865,10.5504 123.5,12C 124.056,12.3826 124.389,12.8826 124.5,13.5 Z"/></g>
<g><path style="opacity:0.38" fill="#b0d0ec" d="M 313.5,12.5 C 308.985,11.0184 304.319,10.3517 299.5,10.5C 291.344,9.34345 283.01,9.17678 274.5,10C 269.221,11.4868 263.888,12.6535 258.5,13.5C 259.5,12.8333 260.5,12.1667 261.5,11.5C 275.836,6.99225 290.502,6.32558 305.5,9.5C 306.772,9.43017 307.938,9.09684 309,8.5C 310.397,10.0703 311.897,11.4036 313.5,12.5 Z"/></g>
<g><path style="opacity:0.024" fill="#eef4f9" d="M 313.5,12.5 C 316.082,12.0254 318.082,12.6921 319.5,14.5C 317.302,14.1249 315.302,13.4582 313.5,12.5 Z"/></g>
<g><path style="opacity:0.999" fill="#2c86cf" d="M 81.5,10.5 C 95.912,8.6093 110.245,9.6093 124.5,13.5C 126.891,16.917 130.225,18.2503 134.5,17.5C 139.827,19.9807 144.16,23.814 147.5,29C 148.448,29.4828 149.448,29.6495 150.5,29.5C 150.427,31.0269 151.094,32.0269 152.5,32.5C 155.799,35.6296 158.799,38.963 161.5,42.5C 162.167,42.5 162.5,42.8333 162.5,43.5C 164.463,46.1614 166.463,48.828 168.5,51.5C 170.783,54.9563 173.283,58.2896 176,61.5C 177.459,64.7699 178.626,68.1032 179.5,71.5C 180.5,71.5 181.5,71.5 182.5,71.5C 183.674,72.5137 184.34,73.847 184.5,75.5C 184.584,81.4147 186.251,86.7481 189.5,91.5C 189.5,91.8333 189.5,92.1667 189.5,92.5C 189.238,93.9778 189.571,95.3112 190.5,96.5C 192.401,94.2716 193.401,91.6049 193.5,88.5C 197.007,83.8573 199.007,78.524 199.5,72.5C 204.375,64.4304 209.042,56.0971 213.5,47.5C 215.255,46.9278 216.922,46.0945 218.5,45C 221.629,41.2271 224.629,37.3938 227.5,33.5C 230.5,33.8333 231.833,32.5 231.5,29.5C 234.388,29.7804 235.888,28.4471 236,25.5C 243.013,20.5772 250.513,16.5772 258.5,13.5C 263.888,12.6535 269.221,11.4868 274.5,10C 283.01,9.17678 291.344,9.34345 299.5,10.5C 291.493,10.3336 283.493,10.5003 275.5,11C 277.393,13.3031 279.393,15.4698 281.5,17.5C 285.313,18.1671 288.979,18.8337 292.5,19.5C 291.5,19.5 290.5,19.5 289.5,19.5C 283.974,19.1786 278.64,19.5119 273.5,20.5C 267.389,19.8378 261.722,21.0045 256.5,24C 250.435,30.0628 243.768,35.3962 236.5,40C 232.333,44.1667 228.167,48.3333 224,52.5C 221.666,58.3879 218.166,63.3879 213.5,67.5C 207.485,79.6872 202.318,92.3539 198,105.5C 196.121,114.023 193.788,122.357 191,130.5C 187.002,119.882 184.002,108.882 182,97.5C 178.2,88.9831 174.7,80.3165 171.5,71.5C 170.5,71.5 169.5,71.5 168.5,71.5C 165.945,66.0596 163.112,60.7263 160,55.5C 158.023,52.6884 155.856,50.0217 153.5,47.5C 144.909,39.5339 135.909,32.0339 126.5,25C 123.428,23.1425 120.095,21.9758 116.5,21.5C 113.713,20.5233 110.713,20.19 107.5,20.5C 101.355,19.5098 95.0221,19.1765 88.5,19.5C 91.6028,17.2262 94.2694,14.3928 96.5,11C 91.5111,10.5007 86.5111,10.3341 81.5,10.5 Z"/></g>
<g><path style="opacity:0.035" fill="#eaf1f8" d="M 54.5,16.5 C 49.4857,19.3555 44.4857,22.3555 39.5,25.5C 40.0476,23.6064 41.0476,21.9397 42.5,20.5C 46.3221,18.5866 50.3221,17.2533 54.5,16.5 Z"/></g>
<g><path style="opacity:0.999" fill="#276eb7" d="M 81.5,10.5 C 86.5111,10.3341 91.5111,10.5007 96.5,11C 94.2694,14.3928 91.6028,17.2262 88.5,19.5C 82.4533,19.9045 76.4533,20.5711 70.5,21.5C 63.9946,23.5795 58.3279,26.9128 53.5,31.5C 50.3816,33.5626 47.0482,35.396 43.5,37C 40.9677,39.4472 38.6343,42.1139 36.5,45C 33.804,45.6898 31.6374,47.1898 30,49.5C 20.2754,62.6222 14.1087,77.2889 11.5,93.5C 10.1402,108.533 10.4735,123.533 12.5,138.5C 14.693,145.679 16.193,153.012 17,160.5C 20.6668,169.167 24.3335,177.834 28,186.5C 36.5597,201.403 45.5597,216.069 55,230.5C 60.3691,235.879 65.0358,241.879 69,248.5C 74.6667,254.167 80.3333,259.833 86,265.5C 95.6851,278.537 106.518,290.537 118.5,301.5C 119.386,302.325 119.719,303.325 119.5,304.5C 122.664,305.616 125.664,307.283 128.5,309.5C 134.083,316.254 140.416,322.087 147.5,327C 153.857,334.356 160.524,341.356 167.5,348C 170.361,348.54 173.028,349.54 175.5,351C 179.975,355.969 184.975,360.469 190.5,364.5C 200.751,356.079 211.418,348.246 222.5,341C 227.783,333.192 234.449,327.025 242.5,322.5C 250.23,312.435 259.23,303.768 269.5,296.5C 274.504,289.998 280.004,283.998 286,278.5C 286.966,275.035 289.132,272.702 292.5,271.5C 303.401,258.133 314.567,244.8 326,231.5C 334.825,219.533 342.491,206.866 349,193.5C 353.252,188.996 355.919,183.662 357,177.5C 359.37,172.017 362.037,166.683 365,161.5C 369.293,142.742 371.293,123.742 371,104.5C 369.528,92.3571 367.361,80.3571 364.5,68.5C 363.325,68.719 362.325,68.3857 361.5,67.5C 359.387,58.0928 354.387,50.7595 346.5,45.5C 343.486,42.1542 340.486,38.8209 337.5,35.5C 333.284,33.9554 329.284,31.9554 325.5,29.5C 321.221,24.8788 315.887,22.2121 309.5,21.5C 304.016,20.4825 298.349,19.8158 292.5,19.5C 288.979,18.8337 285.313,18.1671 281.5,17.5C 279.393,15.4698 277.393,13.3031 275.5,11C 283.493,10.5003 291.493,10.3336 299.5,10.5C 304.319,10.3517 308.985,11.0184 313.5,12.5C 315.302,13.4582 317.302,14.1249 319.5,14.5C 320.609,14.5569 321.609,14.8902 322.5,15.5C 326.442,17.9894 330.776,19.8227 335.5,21C 339.335,24.7411 343.335,28.2411 347.5,31.5C 349.001,32.7515 350.668,33.7515 352.5,34.5C 352.088,36.9726 353.088,38.3059 355.5,38.5C 355.833,38.5 356.167,38.5 356.5,38.5C 356.5,39.1667 356.5,39.8333 356.5,40.5C 357.833,43.8333 360.167,46.1667 363.5,47.5C 363.343,48.8734 363.51,50.2068 364,51.5C 368.132,58.145 371.966,64.8116 375.5,71.5C 378.039,78.1765 379.706,85.1765 380.5,92.5C 380.5,94.1667 380.5,95.8333 380.5,97.5C 380.717,108.86 380.384,120.193 379.5,131.5C 379.5,134.167 379.5,136.833 379.5,139.5C 379.5,139.833 379.5,140.167 379.5,140.5C 377.508,145.185 376.508,150.185 376.5,155.5C 376.5,155.833 376.5,156.167 376.5,156.5C 374.517,161.304 372.851,166.304 371.5,171.5C 370.504,171.414 369.671,171.748 369,172.5C 367.51,177.128 366.343,181.794 365.5,186.5C 364.519,188.309 363.019,189.643 361,190.5C 360.187,193.821 358.687,196.821 356.5,199.5C 355.844,201.453 355.511,203.453 355.5,205.5C 353.415,207.549 351.248,209.549 349,211.5C 348.517,212.448 348.351,213.448 348.5,214.5C 348.25,216.674 347.25,218.341 345.5,219.5C 343.896,220.287 343.229,221.62 343.5,223.5C 342.178,223.33 341.011,223.663 340,224.5C 339.086,228.215 337.586,231.549 335.5,234.5C 335.5,234.833 335.5,235.167 335.5,235.5C 332.881,238.603 329.714,241.27 326,243.5C 325.798,245.256 325.298,246.922 324.5,248.5C 321.741,251.026 319.741,254.026 318.5,257.5C 318.5,258.167 318.167,258.5 317.5,258.5C 315.027,258.088 313.694,259.088 313.5,261.5C 310.167,263.159 308.5,265.825 308.5,269.5C 308.5,270.167 308.167,270.5 307.5,270.5C 305.821,270.285 304.821,270.952 304.5,272.5C 304.5,273.167 304.167,273.5 303.5,273.5C 301.91,273.628 300.577,274.295 299.5,275.5C 298.808,278.123 297.308,280.123 295,281.5C 294.517,282.448 294.351,283.448 294.5,284.5C 294.5,285.167 294.167,285.5 293.5,285.5C 290.051,287.941 287.384,290.941 285.5,294.5C 285.5,294.833 285.5,295.167 285.5,295.5C 282.86,295.954 280.527,297.121 278.5,299C 276.859,300.129 275.859,301.629 275.5,303.5C 273.861,304.473 272.527,305.806 271.5,307.5C 268.928,309.215 266.595,311.215 264.5,313.5C 263.833,314.5 263.167,315.5 262.5,316.5C 258.611,317.443 255.944,319.777 254.5,323.5C 253.833,324.5 253.167,325.5 252.5,326.5C 250.821,326.285 249.821,326.952 249.5,328.5C 248.728,329.694 247.728,330.694 246.5,331.5C 243.858,331.488 242.525,332.821 242.5,335.5C 237.932,337.402 234.265,340.402 231.5,344.5C 231.5,344.833 231.5,345.167 231.5,345.5C 229.81,345.856 228.81,346.856 228.5,348.5C 228.5,349.167 228.167,349.5 227.5,349.5C 225.067,349.273 223.401,350.273 222.5,352.5C 221.5,354.167 220.167,355.5 218.5,356.5C 216.833,356.5 215.167,356.5 213.5,356.5C 212.708,358.885 211.374,360.885 209.5,362.5C 204.994,365.251 200.994,368.751 197.5,373C 195.347,373.099 193.681,373.933 192.5,375.5C 192.5,375.833 192.5,376.167 192.5,376.5C 191.127,376.657 189.793,376.49 188.5,376C 186.937,374.053 184.937,372.886 182.5,372.5C 180.29,372.106 178.957,370.773 178.5,368.5C 176.761,365.757 174.427,363.757 171.5,362.5C 168.193,360.203 164.86,357.87 161.5,355.5C 161.372,353.91 160.705,352.577 159.5,351.5C 156.798,349.78 154.132,348.113 151.5,346.5C 147.639,343.836 143.973,340.836 140.5,337.5C 140.715,335.821 140.048,334.821 138.5,334.5C 136.833,333.5 135.5,332.167 134.5,330.5C 134.262,328.596 133.262,327.262 131.5,326.5C 131.167,326.5 130.833,326.5 130.5,326.5C 127.991,325.079 125.657,323.412 123.5,321.5C 123.649,320.448 123.483,319.448 123,318.5C 118.06,313.066 112.56,308.4 106.5,304.5C 106.167,304.5 105.833,304.5 105.5,304.5C 101.564,297.322 96.2307,291.322 89.5,286.5C 88.5116,285.205 87.5116,283.872 86.5,282.5C 85.9524,280.606 84.9524,278.94 83.5,277.5C 79.6091,274.641 75.9424,271.641 72.5,268.5C 71.9856,266.302 70.9856,264.302 69.5,262.5C 68.4231,261.295 67.0898,260.628 65.5,260.5C 64.9924,258.767 64.159,258.434 63,259.5C 62.5357,258.906 62.369,258.239 62.5,257.5C 61.8333,255.167 61.1667,252.833 60.5,250.5C 59.1667,250.5 57.8333,250.5 56.5,250.5C 55.8095,246.119 53.8095,242.452 50.5,239.5C 49.5712,238.45 48.9046,238.45 48.5,239.5C 47.6618,239.158 47.3284,238.492 47.5,237.5C 47.762,236.022 47.4287,234.689 46.5,233.5C 44.0013,231.03 42.0013,228.363 40.5,225.5C 39.483,223.089 37.8163,221.422 35.5,220.5C 35.5,220.167 35.5,219.833 35.5,219.5C 33.1448,214.821 30.8115,210.154 28.5,205.5C 26.8405,204.828 25.5072,203.828 24.5,202.5C 24.5,202.167 24.5,201.833 24.5,201.5C 21.8315,195.926 19.1649,190.259 16.5,184.5C 12.9371,176.446 9.6038,168.446 6.5,160.5C 6.66212,158.473 6.49546,156.473 6,154.5C 5.61742,153.944 5.11742,153.611 4.5,153.5C 4.5,153.167 4.5,152.833 4.5,152.5C 3.20264,139.025 2.20264,125.525 1.5,112C 1.9058,97.9174 3.9058,84.084 7.5,70.5C 9.35685,62.4401 13.1902,55.4401 19,49.5C 21.0579,44.4627 24.3912,40.4627 29,37.5C 29.4828,36.552 29.6495,35.552 29.5,34.5C 34.958,33.8613 38.2913,30.8613 39.5,25.5C 44.4857,22.3555 49.4857,19.3555 54.5,16.5C 55.9187,15.5489 57.5853,15.2155 59.5,15.5C 66.6176,13.0754 73.9509,11.4087 81.5,10.5 Z"/></g>
<g><path style="opacity:0.227" fill="#e2eff9" d="M 261.5,11.5 C 260.5,12.1667 259.5,12.8333 258.5,13.5C 250.513,16.5772 243.013,20.5772 236,25.5C 235.888,28.4471 234.388,29.7804 231.5,29.5C 231.833,32.5 230.5,33.8333 227.5,33.5C 231.46,29.5296 235.127,25.1962 238.5,20.5C 245.849,16.6576 253.516,13.6576 261.5,11.5 Z"/></g>
<g><path style="opacity:1" fill="#1b80dd" d="M 88.5,19.5 C 86.1374,23.5516 84.1374,27.885 82.5,32.5C 80.1429,33.4032 78.6429,35.0698 78,37.5C 74.0252,49.6432 70.6918,61.9765 68,74.5C 66.826,88.9662 67.6594,103.3 70.5,117.5C 72.8984,125.862 75.3984,134.195 78,142.5C 82.9649,150.099 86.9649,158.099 90,166.5C 94.8024,171.136 98.6357,176.469 101.5,182.5C 110.352,190.52 119.352,198.353 128.5,206C 139.833,211.333 151.167,216.667 162.5,222C 182.486,224.944 202.486,225.111 222.5,222.5C 224.1,222.551 225.6,222.884 227,223.5C 237.635,220.766 247.468,216.266 256.5,210C 258.167,209.667 259.833,209.333 261.5,209C 272.133,201.094 282.299,192.594 292,183.5C 294.223,181.277 295.556,178.611 296,175.5C 300.425,171.747 304.092,167.413 307,162.5C 326.561,127.572 331.561,90.5715 322,51.5C 318.458,41.1629 314.292,31.1629 309.5,21.5C 315.887,22.2121 321.221,24.8788 325.5,29.5C 326.75,31.9324 328.25,34.2657 330,36.5C 345.297,83.335 340.797,128.002 316.5,170.5C 315.675,171.386 314.675,171.719 313.5,171.5C 311.958,175.587 310.125,179.587 308,183.5C 300.274,192.304 292.107,200.637 283.5,208.5C 277.428,212.954 271.262,217.287 265,221.5C 259.102,222.235 253.936,224.568 249.5,228.5C 244.909,231.43 240.075,232.763 235,232.5C 209.676,241.765 184.342,241.765 159,232.5C 158.586,232.957 158.086,233.291 157.5,233.5C 151.361,231.403 145.694,228.569 140.5,225C 134.912,223.205 129.579,220.872 124.5,218C 111.791,209.296 100.291,199.13 90,187.5C 82.3522,176.607 75.3522,165.273 69,153.5C 61.0799,133.059 56.5799,111.892 55.5,90C 56.0622,82.5042 56.5622,75.0042 57,67.5C 58.8089,63.0764 59.8089,58.4097 60,53.5C 63.2218,42.7275 66.7218,32.0609 70.5,21.5C 76.4533,20.5711 82.4533,19.9045 88.5,19.5 Z"/></g>
<g><path style="opacity:1" fill="#1d86e2" d="M 88.5,19.5 C 95.0221,19.1765 101.355,19.5098 107.5,20.5C 100.584,19.2685 97.4173,21.9352 98,28.5C 90.3377,41.8211 85.671,56.1545 84,71.5C 82.5473,81.1261 82.214,90.7928 83,100.5C 84.9496,112.581 87.283,124.581 90,136.5C 94.2701,144.041 98.2701,151.707 102,159.5C 105.79,162.405 108.623,166.072 110.5,170.5C 114.495,172.809 117.328,176.143 119,180.5C 126.5,186 134,191.5 141.5,197C 147.751,199.422 153.751,202.422 159.5,206C 186.401,213.854 213.068,213.188 239.5,204C 240.126,203.25 240.626,202.416 241,201.5C 241.333,201.833 241.667,202.167 242,202.5C 251.14,197.042 260.306,191.542 269.5,186C 276.72,177.122 284.22,168.622 292,160.5C 295.488,152.19 299.488,144.19 304,136.5C 314.872,106.618 315.205,76.6184 305,46.5C 300.907,38.3254 297.407,29.9921 294.5,21.5C 292.709,20.8302 291.042,20.1635 289.5,19.5C 290.5,19.5 291.5,19.5 292.5,19.5C 298.349,19.8158 304.016,20.4825 309.5,21.5C 314.292,31.1629 318.458,41.1629 322,51.5C 331.561,90.5715 326.561,127.572 307,162.5C 304.092,167.413 300.425,171.747 296,175.5C 295.556,178.611 294.223,181.277 292,183.5C 282.299,192.594 272.133,201.094 261.5,209C 259.833,209.333 258.167,209.667 256.5,210C 247.468,216.266 237.635,220.766 227,223.5C 225.6,222.884 224.1,222.551 222.5,222.5C 202.486,225.111 182.486,224.944 162.5,222C 151.167,216.667 139.833,211.333 128.5,206C 119.352,198.353 110.352,190.52 101.5,182.5C 98.6357,176.469 94.8024,171.136 90,166.5C 86.9649,158.099 82.9649,150.099 78,142.5C 75.3984,134.195 72.8984,125.862 70.5,117.5C 67.6594,103.3 66.826,88.9662 68,74.5C 70.6918,61.9765 74.0252,49.6432 78,37.5C 78.6429,35.0698 80.1429,33.4032 82.5,32.5C 84.1374,27.885 86.1374,23.5516 88.5,19.5 Z"/></g>
<g><path style="opacity:1" fill="#1e8ce9" d="M 273.5,20.5 C 278.64,19.5119 283.974,19.1786 289.5,19.5C 291.042,20.1635 292.709,20.8302 294.5,21.5C 297.407,29.9921 300.907,38.3254 305,46.5C 315.205,76.6184 314.872,106.618 304,136.5C 299.488,144.19 295.488,152.19 292,160.5C 284.22,168.622 276.72,177.122 269.5,186C 260.306,191.542 251.14,197.042 242,202.5C 241.667,202.167 241.333,201.833 241,201.5C 240.626,202.416 240.126,203.25 239.5,204C 213.068,213.188 186.401,213.854 159.5,206C 153.751,202.422 147.751,199.422 141.5,197C 134,191.5 126.5,186 119,180.5C 117.328,176.143 114.495,172.809 110.5,170.5C 108.623,166.072 105.79,162.405 102,159.5C 98.2701,151.707 94.2701,144.041 90,136.5C 87.283,124.581 84.9496,112.581 83,100.5C 82.214,90.7928 82.5473,81.1261 84,71.5C 85.671,56.1545 90.3377,41.8211 98,28.5C 97.4173,21.9352 100.584,19.2685 107.5,20.5C 110.713,20.19 113.713,20.5233 116.5,21.5C 112.816,28.2058 109.649,35.2058 107,42.5C 100.691,51.7622 97.358,62.0955 97,73.5C 94.7451,86.6009 95.2451,99.6009 98.5,112.5C 98.4302,113.772 98.0968,114.938 97.5,116C 102.96,131.42 110.127,145.92 119,159.5C 122.737,163.282 126.571,166.949 130.5,170.5C 135.587,172.754 139.587,176.254 142.5,181C 173.541,199.75 205.874,202.084 239.5,188C 246.695,184.797 252.695,180.13 257.5,174C 265.666,170.83 271.499,165.33 275,157.5C 289.825,141.158 297.492,121.824 298,99.5C 299.037,82.13 297.037,65.13 292,48.5C 287.335,39.8342 282.668,31.1676 278,22.5C 276.89,20.9632 275.39,20.2965 273.5,20.5 Z"/></g>
<g><path style="opacity:0.708" fill="#a6c5e9" d="M 124.5,13.5 C 125.873,13.3433 127.207,13.51 128.5,14C 130.618,15.0821 132.618,16.2488 134.5,17.5C 130.225,18.2503 126.891,16.917 124.5,13.5 Z"/></g>
<g><path style="opacity:1" fill="#1a7bd7" d="M 70.5,21.5 C 66.7218,32.0609 63.2218,42.7275 60,53.5C 59.8089,58.4097 58.8089,63.0764 57,67.5C 56.5622,75.0042 56.0622,82.5042 55.5,90C 56.5799,111.892 61.0799,133.059 69,153.5C 75.3522,165.273 82.3522,176.607 90,187.5C 100.291,199.13 111.791,209.296 124.5,218C 129.579,220.872 134.912,223.205 140.5,225C 145.694,228.569 151.361,231.403 157.5,233.5C 158.086,233.291 158.586,232.957 159,232.5C 184.342,241.765 209.676,241.765 235,232.5C 240.075,232.763 244.909,231.43 249.5,228.5C 253.936,224.568 259.102,222.235 265,221.5C 271.262,217.287 277.428,212.954 283.5,208.5C 292.107,200.637 300.274,192.304 308,183.5C 310.125,179.587 311.958,175.587 313.5,171.5C 314.675,171.719 315.675,171.386 316.5,170.5C 340.797,128.002 345.297,83.335 330,36.5C 328.25,34.2657 326.75,31.9324 325.5,29.5C 329.284,31.9554 333.284,33.9554 337.5,35.5C 340.486,38.8209 343.486,42.1542 346.5,45.5C 347.151,55.6256 348.818,65.7922 351.5,76C 351.937,80.4922 352.27,84.9922 352.5,89.5C 350.831,103.181 348.997,116.847 347,130.5C 344.308,140.229 341.308,149.895 338,159.5C 332.079,169.008 326.412,178.674 321,188.5C 317.056,192.781 313.056,197.115 309,201.5C 307.25,205.315 304.417,208.149 300.5,210C 297.176,213.625 293.843,217.292 290.5,221C 284.097,223.195 278.763,226.861 274.5,232C 257.05,240.819 238.717,247.486 219.5,252C 199.1,254.775 178.933,253.609 159,248.5C 145.584,243.525 132.417,238.025 119.5,232C 114.921,226.375 109.254,222.208 102.5,219.5C 99.9841,216.817 97.3174,214.317 94.5,212C 85.6075,201.45 76.7742,190.95 68,180.5C 67.6401,178.392 66.9734,176.392 66,174.5C 62.7352,169.633 59.7352,164.633 57,159.5C 54.647,151.602 51.8136,143.936 48.5,136.5C 42.28,106.737 41.9467,76.9035 47.5,47C 49.4391,41.783 51.4391,36.6163 53.5,31.5C 58.3279,26.9128 63.9946,23.5795 70.5,21.5 Z"/></g>
<g><path style="opacity:1" fill="#2095f2" d="M 273.5,20.5 C 275.39,20.2965 276.89,20.9632 278,22.5C 282.668,31.1676 287.335,39.8342 292,48.5C 297.037,65.13 299.037,82.13 298,99.5C 297.492,121.824 289.825,141.158 275,157.5C 271.499,165.33 265.666,170.83 257.5,174C 252.695,180.13 246.695,184.797 239.5,188C 205.874,202.084 173.541,199.75 142.5,181C 139.587,176.254 135.587,172.754 130.5,170.5C 126.571,166.949 122.737,163.282 119,159.5C 110.127,145.92 102.96,131.42 97.5,116C 98.0968,114.938 98.4302,113.772 98.5,112.5C 95.2451,99.6009 94.7451,86.6009 97,73.5C 97.358,62.0955 100.691,51.7622 107,42.5C 109.649,35.2058 112.816,28.2058 116.5,21.5C 120.095,21.9758 123.428,23.1425 126.5,25C 135.909,32.0339 144.909,39.5339 153.5,47.5C 155.856,50.0217 158.023,52.6884 160,55.5C 163.112,60.7263 165.945,66.0596 168.5,71.5C 169.5,71.5 170.5,71.5 171.5,71.5C 174.7,80.3165 178.2,88.9831 182,97.5C 184.002,108.882 187.002,119.882 191,130.5C 193.788,122.357 196.121,114.023 198,105.5C 202.318,92.3539 207.485,79.6872 213.5,67.5C 218.166,63.3879 221.666,58.3879 224,52.5C 228.167,48.3333 232.333,44.1667 236.5,40C 243.768,35.3962 250.435,30.0628 256.5,24C 261.722,21.0045 267.389,19.8378 273.5,20.5 Z"/></g>
<g><path style="opacity:0.051" fill="#bad8f1" d="M 134.5,17.5 C 141.883,18.8971 147.217,22.8971 150.5,29.5C 149.448,29.6495 148.448,29.4828 147.5,29C 144.16,23.814 139.827,19.9807 134.5,17.5 Z"/></g>
<g><path style="opacity:0.227" fill="#aac6e4" d="M 322.5,15.5 C 327.779,17.1474 333.112,18.8141 338.5,20.5C 341.902,23.8953 344.902,27.562 347.5,31.5C 343.335,28.2411 339.335,24.7411 335.5,21C 330.776,19.8227 326.442,17.9894 322.5,15.5 Z"/></g>
<g><path style="opacity:0.004" fill="#fefffe" d="M 152.5,29.5 C 153.833,30.1667 153.833,30.1667 152.5,29.5 Z"/></g>
<g><path style="opacity:0.267" fill="#d8e7f7" d="M 150.5,29.5 C 151.167,29.8333 151.833,30.1667 152.5,30.5C 152.5,31.1667 152.5,31.8333 152.5,32.5C 151.094,32.0269 150.427,31.0269 150.5,29.5 Z"/></g>
<g><path style="opacity:0.286" fill="#cfe0f0" d="M 39.5,25.5 C 38.2913,30.8613 34.958,33.8613 29.5,34.5C 33.3357,31.939 36.669,28.939 39.5,25.5 Z"/></g>
<g><path style="opacity:0.132" fill="#fcfdfe" d="M 227.5,33.5 C 224.629,37.3938 221.629,41.2271 218.5,45C 216.922,46.0945 215.255,46.9278 213.5,47.5C 216.791,44.6969 219.624,41.3635 222,37.5C 223.451,35.5359 225.284,34.2026 227.5,33.5 Z"/></g>
<g><path style="opacity:1" fill="#1976d1" d="M 53.5,31.5 C 51.4391,36.6163 49.4391,41.783 47.5,47C 41.9467,76.9035 42.28,106.737 48.5,136.5C 51.8136,143.936 54.647,151.602 57,159.5C 59.7352,164.633 62.7352,169.633 66,174.5C 66.9734,176.392 67.6401,178.392 68,180.5C 76.7742,190.95 85.6075,201.45 94.5,212C 97.3174,214.317 99.9841,216.817 102.5,219.5C 109.254,222.208 114.921,226.375 119.5,232C 132.417,238.025 145.584,243.525 159,248.5C 178.933,253.609 199.1,254.775 219.5,252C 238.717,247.486 257.05,240.819 274.5,232C 278.763,226.861 284.097,223.195 290.5,221C 293.843,217.292 297.176,213.625 300.5,210C 304.417,208.149 307.25,205.315 309,201.5C 313.056,197.115 317.056,192.781 321,188.5C 326.412,178.674 332.079,169.008 338,159.5C 341.308,149.895 344.308,140.229 347,130.5C 348.997,116.847 350.831,103.181 352.5,89.5C 352.27,84.9922 351.937,80.4922 351.5,76C 348.818,65.7922 347.151,55.6256 346.5,45.5C 354.387,50.7595 359.387,58.0928 361.5,67.5C 362.325,68.3857 363.325,68.719 364.5,68.5C 367.361,80.3571 369.528,92.3571 371,104.5C 371.293,123.742 369.293,142.742 365,161.5C 362.037,166.683 359.37,172.017 357,177.5C 355.919,183.662 353.252,188.996 349,193.5C 342.491,206.866 334.825,219.533 326,231.5C 314.567,244.8 303.401,258.133 292.5,271.5C 289.132,272.702 286.966,275.035 286,278.5C 280.004,283.998 274.504,289.998 269.5,296.5C 259.23,303.768 250.23,312.435 242.5,322.5C 234.449,327.025 227.783,333.192 222.5,341C 211.418,348.246 200.751,356.079 190.5,364.5C 184.975,360.469 179.975,355.969 175.5,351C 173.028,349.54 170.361,348.54 167.5,348C 160.524,341.356 153.857,334.356 147.5,327C 140.416,322.087 134.083,316.254 128.5,309.5C 125.664,307.283 122.664,305.616 119.5,304.5C 119.719,303.325 119.386,302.325 118.5,301.5C 106.518,290.537 95.6851,278.537 86,265.5C 80.3333,259.833 74.6667,254.167 69,248.5C 65.0358,241.879 60.3691,235.879 55,230.5C 45.5597,216.069 36.5597,201.403 28,186.5C 24.3335,177.834 20.6668,169.167 17,160.5C 16.193,153.012 14.693,145.679 12.5,138.5C 10.4735,123.533 10.1402,108.533 11.5,93.5C 14.1087,77.2889 20.2754,62.6222 30,49.5C 31.6374,47.1898 33.804,45.6898 36.5,45C 38.6343,42.1139 40.9677,39.4472 43.5,37C 47.0482,35.396 50.3816,33.5626 53.5,31.5 Z"/></g>
<g><path style="opacity:0.079" fill="#dfecf8" d="M 152.5,32.5 C 157.119,34.3238 160.119,37.6571 161.5,42.5C 158.799,38.963 155.799,35.6296 152.5,32.5 Z"/></g>
<g><path style="opacity:0.09" fill="#e3ecf6" d="M 352.5,34.5 C 354.262,35.2623 355.262,36.5956 355.5,38.5C 353.088,38.3059 352.088,36.9726 352.5,34.5 Z"/></g>
<g><path style="opacity:0.004" fill="#fefffe" d="M 356.5,37.5 C 357.833,38.1667 357.833,38.1667 356.5,37.5 Z"/></g>
<g><path style="opacity:0.029" fill="#d6e3f2" d="M 356.5,40.5 C 359.139,42.4728 361.473,44.8061 363.5,47.5C 360.167,46.1667 357.833,43.8333 356.5,40.5 Z"/></g>
<g><path style="opacity:0.004" fill="#d9eaf7" d="M 162.5,43.5 C 166.045,45.2295 168.712,47.8962 170.5,51.5C 169.833,51.5 169.167,51.5 168.5,51.5C 166.463,48.828 164.463,46.1614 162.5,43.5 Z"/></g>
<g><path style="opacity:0.878" fill="#99b7dd" d="M 363.5,47.5 C 365.796,49.4006 367.629,51.7339 369,54.5C 370.246,58.9211 372.246,62.9211 375,66.5C 375.494,68.1341 375.66,69.8008 375.5,71.5C 371.966,64.8116 368.132,58.145 364,51.5C 363.51,50.2068 363.343,48.8734 363.5,47.5 Z"/></g>
<g><path style="opacity:0.118" fill="#d3e1f1" d="M 29.5,34.5 C 29.6495,35.552 29.4828,36.552 29,37.5C 24.3912,40.4627 21.0579,44.4627 19,49.5C 13.1902,55.4401 9.35685,62.4401 7.5,70.5C 5.59822,73.6324 4.26489,76.9657 3.5,80.5C 6.99504,62.1696 15.6617,46.8363 29.5,34.5 Z"/></g>
<g><path style="opacity:0.471" fill="#e8f2fa" d="M 213.5,47.5 C 209.042,56.0971 204.375,64.4304 199.5,72.5C 202.014,66.1645 204.847,59.8312 208,53.5C 209.331,51.0038 211.164,49.0038 213.5,47.5 Z"/></g>
<g><path style="opacity:0.004" fill="#fefffe" d="M 178.5,59.5 C 179.833,60.1667 179.833,60.1667 178.5,59.5 Z"/></g>
<g><path style="opacity:0.004" fill="#fefffe" d="M 180.5,65.5 C 181.833,66.1667 181.833,66.1667 180.5,65.5 Z"/></g>
<g><path style="opacity:0.525" fill="#9ac1e8" d="M 168.5,51.5 C 169.167,51.5 169.833,51.5 170.5,51.5C 172.513,52.4752 173.846,54.1419 174.5,56.5C 175.325,57.3857 176.325,57.719 177.5,57.5C 177.446,60.9924 178.446,63.9924 180.5,66.5C 181.167,68.1667 181.833,69.8333 182.5,71.5C 181.5,71.5 180.5,71.5 179.5,71.5C 178.626,68.1032 177.459,64.7699 176,61.5C 173.283,58.2896 170.783,54.9563 168.5,51.5 Z"/></g>
<g><path style="opacity:0.004" fill="#fefffe" d="M -0.5,77.5 C -0.5,76.5 -0.5,75.5 -0.5,74.5C 0.649912,73.1498 1.31658,73.3164 1.5,75C 1.36126,76.301 0.694594,77.1344 -0.5,77.5 Z"/></g>
<g><path style="opacity:0.122" fill="#cee3f5" d="M 199.5,72.5 C 199.007,78.524 197.007,83.8573 193.5,88.5C 194.661,84.1741 195.828,79.8407 197,75.5C 197.377,74.0577 198.21,73.0577 199.5,72.5 Z"/></g>
<g><path style="opacity:0.004" fill="#fefffe" d="M -0.5,83.5 C 0.833333,84.5 0.833333,85.5 -0.5,86.5C -0.5,85.5 -0.5,84.5 -0.5,83.5 Z"/></g>
<g><path style="opacity:0.031" fill="#c0dbf2" d="M 184.5,75.5 C 185.791,77.949 186.791,80.6156 187.5,83.5C 188.025,84.1924 188.692,84.6924 189.5,85C 189.216,86.9562 189.216,89.1229 189.5,91.5C 186.251,86.7481 184.584,81.4147 184.5,75.5 Z"/></g>
<g><path style="opacity:0.004" fill="#fefffe" d="M 191.5,88.5 C 190.833,87.1667 190.833,87.1667 191.5,88.5 Z"/></g>
<g><path style="opacity:0.388" fill="#90bce5" d="M 191.5,88.5 C 192.167,88.5 192.833,88.5 193.5,88.5C 193.401,91.6049 192.401,94.2716 190.5,96.5C 189.571,95.3112 189.238,93.9778 189.5,92.5C 191.176,91.8166 191.843,90.4832 191.5,88.5 Z"/></g>
<g><path style="opacity:0.316" fill="#abc4e2" d="M 7.5,70.5 C 3.9058,84.084 1.9058,97.9174 1.5,112C 2.20264,125.525 3.20264,139.025 4.5,152.5C 3.3485,150.221 2.3485,147.888 1.5,145.5C 1.6653,141.818 1.49863,138.152 1,134.5C 0.809116,136.708 0.309116,138.708 -0.5,140.5C -0.5,138.167 -0.5,135.833 -0.5,133.5C 0.833333,130.833 0.833333,128.167 -0.5,125.5C -0.5,117.167 -0.5,108.833 -0.5,100.5C 0.362336,93.8328 1.69567,87.1661 3.5,80.5C 4.26489,76.9657 5.59822,73.6324 7.5,70.5 Z"/></g>
<g><path style="opacity:0.055" fill="#dbe7f4" d="M 380.5,92.5 C 382.003,96.0237 383.003,99.6903 383.5,103.5C 383.5,104.5 383.5,105.5 383.5,106.5C 382.167,109.833 382.167,113.167 383.5,116.5C 383.5,117.167 383.5,117.833 383.5,118.5C 382.833,121.5 382.167,124.5 381.5,127.5C 381.827,117.319 381.494,107.319 380.5,97.5C 380.5,95.8333 380.5,94.1667 380.5,92.5 Z"/></g>
<g><path style="opacity:0.514" fill="#699bcd" d="M 380.5,97.5 C 381.494,107.319 381.827,117.319 381.5,127.5C 381.5,128.5 381.5,129.5 381.5,130.5C 380.833,130.833 380.167,131.167 379.5,131.5C 380.384,120.193 380.717,108.86 380.5,97.5 Z"/></g>
<g><path style="opacity:0.384" fill="#b2cae5" d="M 381.5,130.5 C 382.124,130.917 382.457,131.584 382.5,132.5C 381.342,134.843 380.342,137.177 379.5,139.5C 379.5,136.833 379.5,134.167 379.5,131.5C 380.167,131.167 380.833,130.833 381.5,130.5 Z"/></g>
<g><path style="opacity:0.004" fill="#fefffe" d="M -0.5,143.5 C 0.166667,144.167 0.833333,144.833 1.5,145.5C 1.16667,146.5 0.5,147.167 -0.5,147.5C -0.5,146.167 -0.5,144.833 -0.5,143.5 Z"/></g>
<g><path style="opacity:0.796" fill="#87a9d5" d="M 379.5,140.5 C 379.631,145.848 378.631,150.848 376.5,155.5C 376.508,150.185 377.508,145.185 379.5,140.5 Z"/></g>
<g><path style="opacity:0.004" fill="#fefffe" d="M 383.5,150.5 C 383.5,151.167 383.5,151.833 383.5,152.5C 382.35,153.85 381.683,153.684 381.5,152C 381.836,150.97 382.503,150.47 383.5,150.5 Z"/></g>
<g><path style="opacity:0.314" fill="#c3d6ec" d="M 4.5,153.5 C 5.11742,153.611 5.61742,153.944 6,154.5C 6.49546,156.473 6.66212,158.473 6.5,160.5C 5.59334,158.343 4.92668,156.01 4.5,153.5 Z"/></g>
<g><path style="opacity:0.004" fill="#fefffe" d="M 380.5,157.5 C 381.88,157.962 382.547,158.962 382.5,160.5C 382.14,162.608 381.473,164.608 380.5,166.5C 379.932,163.588 379.932,160.588 380.5,157.5 Z"/></g>
<g><path style="opacity:0.231" fill="#b7cce7" d="M 376.5,156.5 C 376.263,159.212 376.263,161.712 376.5,164C 374.979,166.671 373.312,169.171 371.5,171.5C 372.851,166.304 374.517,161.304 376.5,156.5 Z"/></g>
<g><path style="opacity:0.071" fill="#9ebcde" d="M 6.5,160.5 C 9.6038,168.446 12.9371,176.446 16.5,184.5C 16.1667,184.5 15.8333,184.5 15.5,184.5C 13.2666,179.746 10.7666,175.08 8,170.5C 6.80108,167.274 6.30108,163.941 6.5,160.5 Z"/></g>
<g><path style="opacity:0.651" fill="#7fa5d3" d="M 371.5,171.5 C 370.249,176.878 368.249,181.878 365.5,186.5C 366.343,181.794 367.51,177.128 369,172.5C 369.671,171.748 370.504,171.414 371.5,171.5 Z"/></g>
<g><path style="opacity:0.165" fill="#d2e0f0" d="M 15.5,184.5 C 15.8333,184.5 16.1667,184.5 16.5,184.5C 19.1649,190.259 21.8315,195.926 24.5,201.5C 23.8333,200.833 23.1667,200.167 22.5,199.5C 18.8826,195.257 16.5493,190.257 15.5,184.5 Z"/></g>
<g><path style="opacity:0.404" fill="#acc5e3" d="M 365.5,186.5 C 364.609,189.575 363.443,192.575 362,195.5C 361,197.167 359.667,198.5 358,199.5C 357.434,201.723 356.6,203.723 355.5,205.5C 355.511,203.453 355.844,201.453 356.5,199.5C 358.687,196.821 360.187,193.821 361,190.5C 363.019,189.643 364.519,188.309 365.5,186.5 Z"/></g>
<g><path style="opacity:0.004" fill="#fefffe" d="M 22.5,199.5 C 21.8333,200.167 21.8333,200.167 22.5,199.5 Z"/></g>
<g><path style="opacity:0.004" fill="#fefffe" d="M 27.5,208.5 C 26.8333,209.167 26.8333,209.167 27.5,208.5 Z"/></g>
<g><path style="opacity:0.122" fill="#afc8e4" d="M 355.5,205.5 C 354.306,209.363 351.973,212.363 348.5,214.5C 348.351,213.448 348.517,212.448 349,211.5C 351.248,209.549 353.415,207.549 355.5,205.5 Z"/></g>
<g><path style="opacity:0.122" fill="#bbcfe8" d="M 24.5,202.5 C 25.5072,203.828 26.8405,204.828 28.5,205.5C 30.8115,210.154 33.1448,214.821 35.5,219.5C 35.1667,219.5 34.8333,219.5 34.5,219.5C 34.5,218.833 34.1667,218.5 33.5,218.5C 32.2907,215.565 30.2907,213.398 27.5,212C 28.7911,210.708 28.7911,209.542 27.5,208.5C 25.615,206.947 24.615,204.947 24.5,202.5 Z"/></g>
<g><path style="opacity:0.004" fill="#fefffe" d="M 33.5,218.5 C 34.1667,218.5 34.5,218.833 34.5,219.5C 33.5029,220.713 32.5029,220.546 31.5,219C 32.0944,218.536 32.7611,218.369 33.5,218.5 Z"/></g>
<g><path style="opacity:0.341" fill="#c0d4eb" d="M 345.5,219.5 C 345.843,221.483 345.176,222.817 343.5,223.5C 343.229,221.62 343.896,220.287 345.5,219.5 Z"/></g>
<g><path style="opacity:0.014" fill="#f0f3fb" d="M 35.5,220.5 C 37.8163,221.422 39.483,223.089 40.5,225.5C 41.2341,226.708 41.5674,228.041 41.5,229.5C 40.5326,228.194 39.1993,227.527 37.5,227.5C 36.018,225.166 35.3513,222.833 35.5,220.5 Z"/></g>
<g><path style="opacity:0.306" fill="#99badc" d="M 40.5,225.5 C 42.0013,228.363 44.0013,231.03 46.5,233.5C 47.4287,234.689 47.762,236.022 47.5,237.5C 45.1223,235.122 43.1223,232.455 41.5,229.5C 41.5674,228.041 41.2341,226.708 40.5,225.5 Z"/></g>
<g><path style="opacity:0.343" fill="#8aaed7" d="M 343.5,223.5 C 341.263,226.059 339.763,229.059 339,232.5C 337.887,233.305 336.721,233.972 335.5,234.5C 337.586,231.549 339.086,228.215 340,224.5C 341.011,223.663 342.178,223.33 343.5,223.5 Z"/></g>
<g><path style="opacity:0.357" fill="#a0bedf" d="M 56.5,250.5 C 53.8942,246.878 51.2275,243.212 48.5,239.5C 48.9046,238.45 49.5712,238.45 50.5,239.5C 53.8095,242.452 55.8095,246.119 56.5,250.5 Z"/></g>
<g><path style="opacity:0.659" fill="#95b6db" d="M 335.5,235.5 C 334.213,237.637 333.379,239.97 333,242.5C 332.667,242.167 332.333,241.833 332,241.5C 330.649,243.019 329.149,244.352 327.5,245.5C 326.811,247.444 326.311,249.444 326,251.5C 325.667,250.833 325.333,250.167 325,249.5C 323.581,251.336 322.414,253.336 321.5,255.5C 320.643,256.425 319.643,257.092 318.5,257.5C 319.741,254.026 321.741,251.026 324.5,248.5C 325.298,246.922 325.798,245.256 326,243.5C 329.714,241.27 332.881,238.603 335.5,235.5 Z"/></g>
<g><path style="opacity:0.153" fill="#c2d3ea" d="M 56.5,250.5 C 57.8333,250.5 59.1667,250.5 60.5,250.5C 61.1667,252.833 61.8333,255.167 62.5,257.5C 60.4989,255.121 58.4989,252.788 56.5,250.5 Z"/></g>
<g><path style="opacity:0.133" fill="#b6cee7" d="M 317.5,258.5 C 316.738,260.262 315.404,261.262 313.5,261.5C 313.694,259.088 315.027,258.088 317.5,258.5 Z"/></g>
<g><path style="opacity:0.624" fill="#91b2d9" d="M 65.5,260.5 C 67.0898,260.628 68.4231,261.295 69.5,262.5C 70.9856,264.302 71.9856,266.302 72.5,268.5C 70.3145,266.448 67.9812,263.781 65.5,260.5 Z"/></g>
<g><path style="opacity:0.031" fill="#9fbedf" d="M 313.5,261.5 C 311.83,264.175 310.164,266.841 308.5,269.5C 308.5,265.825 310.167,263.159 313.5,261.5 Z"/></g>
<g><path style="opacity:0.09" fill="#bad0e8" d="M 307.5,270.5 C 306.71,271.401 305.71,272.068 304.5,272.5C 304.821,270.952 305.821,270.285 307.5,270.5 Z"/></g>
<g><path style="opacity:0.4" fill="#c3d6eb" d="M 72.5,268.5 C 75.9424,271.641 79.6091,274.641 83.5,277.5C 84.9524,278.94 85.9524,280.606 86.5,282.5C 83.3171,280.144 80.3171,277.644 77.5,275C 75.5626,272.914 73.896,270.748 72.5,268.5 Z"/></g>
<g><path style="opacity:0.224" fill="#b1c9e5" d="M 303.5,273.5 C 302.524,274.815 301.524,276.148 300.5,277.5C 302.04,278.532 302.54,279.865 302,281.5C 300.951,280.483 299.784,280.316 298.5,281C 297.051,282.102 295.718,283.269 294.5,284.5C 294.351,283.448 294.517,282.448 295,281.5C 297.308,280.123 298.808,278.123 299.5,275.5C 300.577,274.295 301.91,273.628 303.5,273.5 Z"/></g>
<g><path style="opacity:0.004" fill="#fefffe" d="M 303.5,276.5 C 304.525,276.897 304.692,277.563 304,278.5C 303.536,277.906 303.369,277.239 303.5,276.5 Z"/></g>
<g><path style="opacity:0.004" fill="#fefffe" d="M 298.5,282.5 C 299.833,283.167 299.833,283.167 298.5,282.5 Z"/></g>
<g><path style="opacity:0.004" fill="#fefffe" d="M 294.5,291.5 C 294.995,289.518 295.495,287.518 296,285.5C 296.718,284.549 297.551,284.383 298.5,285C 297.24,287.301 295.907,289.468 294.5,291.5 Z"/></g>
<g><path style="opacity:0.004" fill="#fefffe" d="M 294.5,291.5 C 293.079,294.343 291.079,295.676 288.5,295.5C 290.223,293.782 292.223,292.449 294.5,291.5 Z"/></g>
<g><path style="opacity:0.969" fill="#b5cae5" d="M 89.5,286.5 C 96.2307,291.322 101.564,297.322 105.5,304.5C 101.459,300.824 97.4587,297.157 93.5,293.5C 92.657,291.827 91.3237,290.66 89.5,290C 90.1712,289.014 90.1712,287.847 89.5,286.5 Z"/></g>
<g><path style="opacity:0.459" fill="#97b5da" d="M 293.5,285.5 C 293.046,288.14 291.879,290.473 290,292.5C 289.667,292.167 289.333,291.833 289,291.5C 288.578,293.426 287.411,294.426 285.5,294.5C 287.384,290.941 290.051,287.941 293.5,285.5 Z"/></g>
<g><path style="opacity:0.004" fill="#fefffe" d="M 93.5,293.5 C 92.8333,294.167 92.8333,294.167 93.5,293.5 Z"/></g>
<g><path style="opacity:0.004" fill="#fefffe" d="M 288.5,295.5 C 287.833,296.167 287.833,296.167 288.5,295.5 Z"/></g>
<g><path style="opacity:0.004" fill="#fefffe" d="M 285.5,297.5 C 285.5,297.167 285.5,296.833 285.5,296.5C 286.167,296.5 286.833,296.5 287.5,296.5C 287.158,297.338 286.492,297.672 285.5,297.5 Z"/></g>
<g><path style="opacity:0.004" fill="#fefefe" d="M 284.5,297.5 C 284.833,297.5 285.167,297.5 285.5,297.5C 285.016,300.655 283.349,302.988 280.5,304.5C 280.193,303.113 280.193,301.446 280.5,299.5C 281.167,299.167 281.833,298.833 282.5,298.5C 282.842,297.662 283.508,297.328 284.5,297.5 Z"/></g>
<g><path style="opacity:0.216" fill="#7ea8d4" d="M 285.5,295.5 C 285.5,295.833 285.5,296.167 285.5,296.5C 284.833,296.5 284.5,296.833 284.5,297.5C 283.508,297.328 282.842,297.662 282.5,298.5C 281.833,298.833 281.167,299.167 280.5,299.5C 279.512,300.795 278.512,302.128 277.5,303.5C 276.833,303.5 276.167,303.5 275.5,303.5C 275.859,301.629 276.859,300.129 278.5,299C 280.527,297.121 282.86,295.954 285.5,295.5 Z"/></g>
<g><path style="opacity:0.004" fill="#e6edf6" d="M 275.5,303.5 C 276.167,303.5 276.833,303.5 277.5,303.5C 278.374,306.231 277.374,308.398 274.5,310C 272.905,309.383 271.572,309.716 270.5,311C 271.337,312.011 271.67,313.178 271.5,314.5C 270.167,314.5 268.833,314.5 267.5,314.5C 268.739,313.788 269.239,312.788 269,311.5C 267.67,312.582 266.17,313.249 264.5,313.5C 266.595,311.215 268.928,309.215 271.5,307.5C 272.527,305.806 273.861,304.473 275.5,303.5 Z"/></g>
<g><path style="opacity:0.004" fill="#cddcee" d="M 106.5,304.5 C 112.56,308.4 118.06,313.066 123,318.5C 123.483,319.448 123.649,320.448 123.5,321.5C 122.234,320.91 120.901,320.41 119.5,320C 120.167,319.667 120.833,319.333 121.5,319C 117.195,316.994 114.195,314.327 112.5,311C 110.146,309.095 108.146,306.929 106.5,304.5 Z"/></g>
<g><path style="opacity:0.004" fill="#e3ebf5" d="M 267.5,314.5 C 267.804,315.15 268.137,315.817 268.5,316.5C 265.239,317.428 262.906,319.428 261.5,322.5C 261.002,321.397 260.669,320.397 260.5,319.5C 258.815,321.34 256.815,322.673 254.5,323.5C 255.944,319.777 258.611,317.443 262.5,316.5C 262.435,316.938 262.601,317.272 263,317.5C 264.271,316.117 265.771,315.117 267.5,314.5 Z"/></g>
<g><path style="opacity:0.004" fill="#fefffe" d="M 258.5,322.5 C 259.833,323.167 259.833,323.167 258.5,322.5 Z"/></g>
<g><path style="opacity:0.004" fill="#fefffe" d="M 258.5,323.5 C 257.833,324.167 257.833,324.167 258.5,323.5 Z"/></g>
<g><path style="opacity:0.004" fill="#fefffe" d="M 130.5,326.5 C 130.649,327.552 130.483,328.552 130,329.5C 129.26,328.251 129.427,327.251 130.5,326.5 Z"/></g>
<g><path style="opacity:0.004" fill="#fefffe" d="M 252.5,326.5 C 253.434,327.568 253.768,328.901 253.5,330.5C 251.62,330.771 250.287,330.104 249.5,328.5C 251.027,328.573 252.027,327.906 252.5,326.5 Z"/></g>
<g><path style="opacity:0.004" fill="#eaf0f7" d="M 131.5,326.5 C 133.262,327.262 134.262,328.596 134.5,330.5C 133.778,330.918 133.278,331.584 133,332.5C 129.903,331.711 129.736,330.544 132.5,329C 131.748,328.329 131.414,327.496 131.5,326.5 Z"/></g>
<g><path style="opacity:0.008" fill="#eef3f9" d="M 246.5,331.5 C 244.884,333.416 245.218,334.916 247.5,336C 246.315,337.353 244.981,338.52 243.5,339.5C 243.213,338.8 242.88,338.133 242.5,337.5C 242.5,336.833 242.5,336.167 242.5,335.5C 242.525,332.821 243.858,331.488 246.5,331.5 Z"/></g>
<g><path style="opacity:0.145" fill="#edf2f9" d="M 138.5,334.5 C 140.048,334.821 140.715,335.821 140.5,337.5C 139.094,337.027 138.427,336.027 138.5,334.5 Z"/></g>
<g><path style="opacity:0.004" fill="#fefffe" d="M 240.5,341.5 C 240.5,341.167 240.5,340.833 240.5,340.5C 243.167,340.833 243.167,341.167 240.5,341.5 Z"/></g>
<g><path style="opacity:0.212" fill="#d6e3f1" d="M 140.5,337.5 C 143.973,340.836 147.639,343.836 151.5,346.5C 146.305,345.299 142.638,342.299 140.5,337.5 Z"/></g>
<g><path style="opacity:0.004" fill="#fefffe" d="M 240.5,341.5 C 240.157,343.225 239.157,343.725 237.5,343C 238.244,341.961 239.244,341.461 240.5,341.5 Z"/></g>
<g><path style="opacity:0.224" fill="#8bb0d8" d="M 242.5,335.5 C 242.5,336.167 242.5,336.833 242.5,337.5C 241.094,337.973 240.427,338.973 240.5,340.5C 237.478,340.342 235.478,341.675 234.5,344.5C 233.5,344.5 232.5,344.5 231.5,344.5C 234.265,340.402 237.932,337.402 242.5,335.5 Z"/></g>
<g><path style="opacity:0.007" fill="#f5f8fb" d="M 231.5,344.5 C 232.5,344.5 233.5,344.5 234.5,344.5C 235.303,345.423 235.47,346.423 235,347.5C 233.028,349.232 230.861,350.565 228.5,351.5C 229.625,350.348 229.625,349.348 228.5,348.5C 228.81,346.856 229.81,345.856 231.5,345.5C 231.5,345.167 231.5,344.833 231.5,344.5 Z M 231.5,345.5 C 233.337,345.639 233.67,346.306 232.5,347.5C 231.702,347.043 231.369,346.376 231.5,345.5 Z"/></g>
<g><path style="opacity:0.192" fill="#abc5e3" d="M 151.5,346.5 C 154.132,348.113 156.798,349.78 159.5,351.5C 160.705,352.577 161.372,353.91 161.5,355.5C 157.544,353.212 154.211,350.212 151.5,346.5 Z"/></g>
<g><path style="opacity:0.035" fill="#bed3ea" d="M 227.5,349.5 C 226.101,350.89 224.434,351.89 222.5,352.5C 223.401,350.273 225.067,349.273 227.5,349.5 Z"/></g>
<g><path style="opacity:0.004" fill="#fefffe" d="M 228.5,351.5 C 228.019,354.564 226.686,355.398 224.5,354C 225.471,352.519 226.804,351.685 228.5,351.5 Z"/></g>
<g><path style="opacity:0.004" fill="#fefffe" d="M 222.5,354.5 C 223.525,354.897 223.692,355.563 223,356.5C 222.536,355.906 222.369,355.239 222.5,354.5 Z"/></g>
<g><path style="opacity:0.004" fill="#fefffe" d="M 161.5,356.5 C 160.833,357.167 160.833,357.167 161.5,356.5 Z"/></g>
<g><path style="opacity:0.545" fill="#9bbadd" d="M 218.5,356.5 C 216.054,359.231 213.054,361.231 209.5,362.5C 211.374,360.885 212.708,358.885 213.5,356.5C 215.167,356.5 216.833,356.5 218.5,356.5 Z"/></g>
<g><path style="opacity:0.004" fill="#e5eef7" d="M 161.5,356.5 C 161.5,356.167 161.5,355.833 161.5,355.5C 164.86,357.87 168.193,360.203 171.5,362.5C 168.833,362.833 168.833,363.167 171.5,363.5C 170.614,364.776 169.614,364.776 168.5,363.5C 166.479,360.812 164.146,358.479 161.5,356.5 Z"/></g>
<g><path style="opacity:0.016" fill="#bdd2ea" d="M 171.5,363.5 C 171.5,363.167 171.5,362.833 171.5,362.5C 174.427,363.757 176.761,365.757 178.5,368.5C 175.907,367.246 173.573,365.58 171.5,363.5 Z"/></g>
<g><path style="opacity:0.004" fill="#fefffe" d="M 204.5,369.5 C 205.833,370.167 205.833,370.167 204.5,369.5 Z"/></g>
<g><path style="opacity:0.086" fill="#b4cce6" d="M 209.5,362.5 C 207.42,364.573 205.754,366.907 204.5,369.5C 202.456,370.031 200.789,371.198 199.5,373C 199.833,373.333 200.167,373.667 200.5,374C 197.832,374.567 195.166,375.067 192.5,375.5C 193.681,373.933 195.347,373.099 197.5,373C 200.994,368.751 204.994,365.251 209.5,362.5 Z"/></g>
<g><path style="opacity:0.005" fill="#ecf2f8" d="M 182.5,372.5 C 184.937,372.886 186.937,374.053 188.5,376C 189.793,376.49 191.127,376.657 192.5,376.5C 190.777,377.807 188.943,377.807 187,376.5C 183.177,379.472 182.344,379.139 184.5,375.5C 183.807,374.482 183.141,373.482 182.5,372.5 Z"/></g>
<g><path style="opacity:0.004" fill="#fefffe" d="M 189.5,378.5 C 190.833,379.167 190.833,379.167 189.5,378.5 Z"/></g>
<g><path style="opacity:0.004" fill="#fefffe" d="M -0.5,380.5 C 1.93268,381.548 1.93268,382.214 -0.5,382.5C -0.5,381.833 -0.5,381.167 -0.5,380.5 Z"/></g>
<g><path style="opacity:0.004" fill="#fefffe" d="M 188.5,381.5 C 187.833,380.167 187.833,380.167 188.5,381.5 Z"/></g>
<g><path style="opacity:0.004" fill="#fefffe" d="M 187.5,381.5 C 187.103,382.525 186.437,382.692 185.5,382C 186.094,381.536 186.761,381.369 187.5,381.5 Z"/></g>
<g><path style="opacity:0.004" fill="#fefffe" d="M 188.5,381.5 C 189.833,382.167 189.833,382.167 188.5,381.5 Z"/></g>
<g><path style="opacity:0.004" fill="#fefffe" d="M 193.5,382.5 C 193.897,381.475 194.563,381.308 195.5,382C 194.906,382.464 194.239,382.631 193.5,382.5 Z"/></g>
<g><path style="opacity:0.004" fill="#fefffe" d="M 197.5,382.5 C 198.251,381.427 199.251,381.26 200.5,382C 199.552,382.483 198.552,382.649 197.5,382.5 Z"/></g>
<g><path style="opacity:0.004" fill="#fefffe" d="M 383.5,381.5 C 383.5,382.167 383.5,382.833 383.5,383.5C 382.833,383.5 382.167,383.5 381.5,383.5C 381.5,382.167 382.167,381.5 383.5,381.5 Z"/></g>
</svg>
