<?xml version="1.0" encoding="UTF-8"?>
<!DOCTYPE svg PUBLIC "-//W3C//DTD SVG 1.1//EN" "http://www.w3.org/Graphics/SVG/1.1/DTD/svg11.dtd">
<svg xmlns="http://www.w3.org/2000/svg" version="1.1" width="192px" height="192px" style="shape-rendering:geometricPrecision; text-rendering:geometricPrecision; image-rendering:optimizeQuality; fill-rule:evenodd; clip-rule:evenodd" xmlns:xlink="http://www.w3.org/1999/xlink">
<g><path style="opacity:0.004" fill="#fefffe" d="M -0.5,-0.5 C -0.166667,-0.5 0.166667,-0.5 0.5,-0.5C 0.31468,0.170143 -0.0186536,0.170143 -0.5,-0.5 Z"/></g>
<g><path style="opacity:0.004" fill="#fefffe" d="M 186.5,-0.5 C 186.833,-0.5 187.167,-0.5 187.5,-0.5C 187.315,0.170143 186.981,0.170143 186.5,-0.5 Z"/></g>
<g><path style="opacity:0.004" fill="#fefffe" d="M 189.5,-0.5 C 190.167,-0.5 190.833,-0.5 191.5,-0.5C 191.5,-0.166667 191.5,0.166667 191.5,0.5C 190.508,0.67158 189.842,0.338246 189.5,-0.5 Z"/></g>
<g><path style="opacity:0.612" fill="#96b7dd" d="M 38.5,4.5 C 38.5,4.83333 38.5,5.16667 38.5,5.5C 31.8058,7.02079 25.4725,9.35412 19.5,12.5C 19.4142,11.5041 19.7476,10.6708 20.5,10C 26.3027,7.45415 32.3027,5.62081 38.5,4.5 Z"/></g>
<g><path style="opacity:0.09" fill="#9fbee1" d="M 153.5,5.5 C 153.5,5.16667 153.5,4.83333 153.5,4.5C 158.224,5.37009 162.557,7.03676 166.5,9.5C 162.077,8.45524 157.744,7.12191 153.5,5.5 Z"/></g>
<g><path style="opacity:1" fill="#388bd1" d="M 60.5,5.5 C 62.8976,7.97429 65.8976,9.30762 69.5,9.5C 72.443,11.4381 75.1096,13.7714 77.5,16.5C 77.427,18.0269 78.0937,19.0269 79.5,19.5C 87.3654,26.5556 92.6987,35.2223 95.5,45.5C 97.977,43.5841 98.977,40.9175 98.5,37.5C 100.104,36.713 100.771,35.3797 100.5,33.5C 102.176,32.8166 102.843,31.4832 102.5,29.5C 104.326,27.8525 105.66,25.8525 106.5,23.5C 108.833,23.1667 110.167,21.8333 110.5,19.5C 111.833,18.8333 112.833,17.8333 113.5,16.5C 113.833,15.5 114.5,14.8333 115.5,14.5C 117.5,13.8333 118.833,12.5 119.5,10.5C 121.153,10.3404 122.486,9.67373 123.5,8.5C 127.383,7.54118 131.05,6.20784 134.5,4.5C 140.79,3.24976 147.123,3.24976 153.5,4.5C 153.5,4.83333 153.5,5.16667 153.5,5.5C 148.156,5.33398 142.823,5.50065 137.5,6C 140.125,7.39282 140.125,8.55949 137.5,9.5C 135.265,9.20528 133.265,9.53862 131.5,10.5C 121.045,16.3966 112.545,24.3966 106,34.5C 101.719,44.2995 98.0526,54.2995 95,64.5C 91.6496,42.6885 81.1496,25.3552 63.5,12.5C 61.8045,11.8256 60.1379,11.1589 58.5,10.5C 58.1583,9.66175 57.4916,9.32842 56.5,9.5C 56.5394,8.41683 56.8728,7.41683 57.5,6.5C 51.2015,5.50367 44.8682,5.17033 38.5,5.5C 38.5,5.16667 38.5,4.83333 38.5,4.5C 45.8134,3.02684 53.1468,3.36017 60.5,5.5 Z"/></g>
<g><path style="opacity:0.525" fill="#a8cdeb" d="M 134.5,4.5 C 131.05,6.20784 127.383,7.54118 123.5,8.5C 126.626,6.01034 130.292,4.677 134.5,4.5 Z"/></g>
<g><path style="opacity:1" fill="#3474bb" d="M 38.5,5.5 C 44.8682,5.17033 51.2015,5.50367 57.5,6.5C 56.8728,7.41683 56.5394,8.41683 56.5,9.5C 52.5,9.5 48.5,9.5 44.5,9.5C 41.0613,9.25293 37.728,9.58627 34.5,10.5C 30.9754,11.7589 27.9754,13.7589 25.5,16.5C 23.7446,17.0722 22.0779,17.9055 20.5,19C 16.3073,22.531 12.8073,26.6977 10,31.5C 4.86572,43.9668 3.19905,56.9668 5,70.5C 7.66288,75.1186 9.32954,80.1186 10,85.5C 14.4132,93.995 19.0799,102.328 24,110.5C 44.4248,137.591 68.0914,161.258 95,181.5C 119.941,162.56 142.274,140.893 162,116.5C 169.955,105.551 176.621,93.8845 182,81.5C 186.485,65.7994 186.485,50.1327 182,34.5C 180.065,31.6293 178.399,28.6293 177,25.5C 175.887,24.695 174.721,24.0283 173.5,23.5C 171.12,20.1195 168.12,17.4528 164.5,15.5C 161.752,13.4275 158.752,11.7609 155.5,10.5C 152.763,10.5987 150.096,10.2653 147.5,9.5C 144.167,9.5 140.833,9.5 137.5,9.5C 140.125,8.55949 140.125,7.39282 137.5,6C 142.823,5.50065 148.156,5.33398 153.5,5.5C 157.744,7.12191 162.077,8.45524 166.5,9.5C 167.552,9.35055 168.552,9.51722 169.5,10C 174.295,14.4981 178.795,19.3315 183,24.5C 185.694,28.8789 187.527,33.5456 188.5,38.5C 190.073,52.8866 189.74,67.22 187.5,81.5C 186.302,84.4262 185.302,87.4262 184.5,90.5C 182.952,90.8212 182.285,91.8212 182.5,93.5C 181.529,95.4832 180.529,97.4832 179.5,99.5C 177.824,100.183 177.157,101.517 177.5,103.5C 168.71,117.405 158.71,130.405 147.5,142.5C 146.599,143.29 145.932,144.29 145.5,145.5C 144.833,145.5 144.5,145.833 144.5,146.5C 142.39,147.453 141.223,149.119 141,151.5C 140.667,150.833 140.333,150.167 140,149.5C 139.722,150.416 139.222,151.082 138.5,151.5C 137.833,151.5 137.5,151.833 137.5,152.5C 136.833,152.5 136.5,152.833 136.5,153.5C 135.732,154.263 135.232,155.263 135,156.5C 133.841,155.434 133.008,155.767 132.5,157.5C 131.732,158.263 131.232,159.263 131,160.5C 130.667,160.167 130.333,159.833 130,159.5C 128.961,160.71 127.794,161.71 126.5,162.5C 125.508,162.328 124.842,162.662 124.5,163.5C 123.833,164.833 123.167,166.167 122.5,167.5C 121.833,167.5 121.5,167.833 121.5,168.5C 119.473,169.861 117.806,171.527 116.5,173.5C 116.167,172.167 115.833,172.167 115.5,173.5C 114.833,173.5 114.5,173.833 114.5,174.5C 109.317,178.26 104.317,182.26 99.5,186.5C 97.139,186.674 94.8056,187.007 92.5,187.5C 92.0269,186.094 91.0269,185.427 89.5,185.5C 83.5,180.5 77.5,175.5 71.5,170.5C 71.5,168.5 70.5,167.5 68.5,167.5C 63.479,163.146 58.8123,158.479 54.5,153.5C 53.4274,150.764 51.4274,149.097 48.5,148.5C 48.5,146.5 47.5,145.5 45.5,145.5C 43.1593,141.835 40.4926,138.501 37.5,135.5C 36.8333,132.833 35.1667,131.167 32.5,130.5C 24.7015,122.025 18.0349,112.692 12.5,102.5C 12.5,101.167 12.5,99.8333 12.5,98.5C 11.5,98.5 10.5,98.5 9.5,98.5C 7.6242,94.1996 5.95753,89.8662 4.5,85.5C 3.95176,79.5492 2.61843,73.8825 0.5,68.5C 0.5,68.1667 0.5,67.8333 0.5,67.5C -0.580457,54.0819 1.08621,41.0819 5.5,28.5C 6.90632,28.0269 7.57298,27.0269 7.5,25.5C 10.2195,23.7807 12.2195,21.4474 13.5,18.5C 13.8102,16.8564 14.8102,15.8564 16.5,15.5C 18.5,15.5 19.5,14.5 19.5,12.5C 25.4725,9.35412 31.8058,7.02079 38.5,5.5 Z"/></g>
<g><path style="opacity:0.463" fill="#b5d3ef" d="M 123.5,8.5 C 122.486,9.67373 121.153,10.3404 119.5,10.5C 120.287,8.89578 121.62,8.22911 123.5,8.5 Z"/></g>
<g><path style="opacity:1" fill="#1d86e2" d="M 44.5,9.5 C 48.5,9.5 52.5,9.5 56.5,9.5C 57.4916,9.32842 58.1583,9.66175 58.5,10.5C 58.1667,10.5 57.8333,10.5 57.5,10.5C 54.5525,10.2229 51.7191,10.5562 49,11.5C 39.7857,30.2092 38.4523,49.2092 45,68.5C 59.6968,98.5967 83.5301,110.097 116.5,103C 141.683,91.9952 154.683,72.6618 155.5,45C 156.357,33.9522 153.857,23.7856 148,14.5C 147.506,12.8659 147.34,11.1992 147.5,9.5C 150.096,10.2653 152.763,10.5987 155.5,10.5C 162.916,28.2545 164.416,46.5879 160,65.5C 146.675,101.59 120.841,116.757 82.5,111C 59.3893,103.71 44.2226,88.5429 37,65.5C 33.0159,52.5228 32.5159,39.6895 35.5,27C 37.9978,21.6726 39.9978,16.1726 41.5,10.5C 42.791,10.7373 43.791,10.404 44.5,9.5 Z"/></g>
<g><path style="opacity:1" fill="#1e8ce9" d="M 131.5,10.5 C 133.265,9.53862 135.265,9.20528 137.5,9.5C 140.833,9.5 144.167,9.5 147.5,9.5C 147.34,11.1992 147.506,12.8659 148,14.5C 153.857,23.7856 156.357,33.9522 155.5,45C 154.683,72.6618 141.683,91.9952 116.5,103C 83.5301,110.097 59.6968,98.5967 45,68.5C 38.4523,49.2092 39.7857,30.2092 49,11.5C 51.7191,10.5562 54.5525,10.2229 57.5,10.5C 56.2341,13.3006 55.4008,16.3006 55,19.5C 50.7382,24.2643 48.4049,29.931 48,36.5C 45.7155,65.1427 57.5489,84.976 83.5,96C 109.82,102.021 129.653,93.5214 143,70.5C 143.163,66.6717 144.497,63.3384 147,60.5C 151.123,46.042 149.457,32.3753 142,19.5C 140.869,16.5547 140.036,13.5547 139.5,10.5C 136.833,10.5 134.167,10.5 131.5,10.5 Z"/></g>
<g><path style="opacity:0.424" fill="#88b7e3" d="M 60.5,5.5 C 63.7442,6.46291 66.7442,7.79624 69.5,9.5C 65.8976,9.30762 62.8976,7.97429 60.5,5.5 Z"/></g>
<g><path style="opacity:1" fill="#1b80dd" d="M 44.5,9.5 C 43.791,10.404 42.791,10.7373 41.5,10.5C 39.9978,16.1726 37.9978,21.6726 35.5,27C 32.5159,39.6895 33.0159,52.5228 37,65.5C 44.2226,88.5429 59.3893,103.71 82.5,111C 120.841,116.757 146.675,101.59 160,65.5C 164.416,46.5879 162.916,28.2545 155.5,10.5C 158.752,11.7609 161.752,13.4275 164.5,15.5C 176.219,54.5223 165.886,86.0223 133.5,110C 99.3279,126.232 69.4946,120.399 44,92.5C 25.8535,66.5887 22.6869,39.2554 34.5,10.5C 37.728,9.58627 41.0613,9.25293 44.5,9.5 Z"/></g>
<g><path style="opacity:1" fill="#2095f2" d="M 57.5,10.5 C 57.8333,10.5 58.1667,10.5 58.5,10.5C 60.1379,11.1589 61.8045,11.8256 63.5,12.5C 81.1496,25.3552 91.6496,42.6885 95,64.5C 98.0526,54.2995 101.719,44.2995 106,34.5C 112.545,24.3966 121.045,16.3966 131.5,10.5C 134.167,10.5 136.833,10.5 139.5,10.5C 140.036,13.5547 140.869,16.5547 142,19.5C 149.457,32.3753 151.123,46.042 147,60.5C 144.497,63.3384 143.163,66.6717 143,70.5C 129.653,93.5214 109.82,102.021 83.5,96C 57.5489,84.976 45.7155,65.1427 48,36.5C 48.4049,29.931 50.7382,24.2643 55,19.5C 55.4008,16.3006 56.2341,13.3006 57.5,10.5 Z"/></g>
<g><path style="opacity:0.875" fill="#90bee6" d="M 119.5,10.5 C 118.833,12.5 117.5,13.8333 115.5,14.5C 115.957,12.2273 117.29,10.894 119.5,10.5 Z"/></g>
<g><path style="opacity:1" fill="#1a7bd7" d="M 34.5,10.5 C 22.6869,39.2554 25.8535,66.5887 44,92.5C 69.4946,120.399 99.3279,126.232 133.5,110C 165.886,86.0223 176.219,54.5223 164.5,15.5C 168.12,17.4528 171.12,20.1195 173.5,23.5C 180.276,58.0936 170.609,87.0936 144.5,110.5C 112.737,132.204 81.404,131.704 50.5,109C 23.3298,83.4291 14.9964,52.5957 25.5,16.5C 27.9754,13.7589 30.9754,11.7589 34.5,10.5 Z"/></g>
<g><path style="opacity:0.369" fill="#9fbee0" d="M 19.5,12.5 C 19.5,14.5 18.5,15.5 16.5,15.5C 17.1667,14.1667 18.1667,13.1667 19.5,12.5 Z"/></g>
<g><path style="opacity:0.384" fill="#accdec" d="M 77.5,16.5 C 78.9063,16.9731 79.573,17.9731 79.5,19.5C 78.0937,19.0269 77.427,18.0269 77.5,16.5 Z"/></g>
<g><path style="opacity:1" fill="#1976d1" d="M 25.5,16.5 C 14.9964,52.5957 23.3298,83.4291 50.5,109C 81.404,131.704 112.737,132.204 144.5,110.5C 170.609,87.0936 180.276,58.0936 173.5,23.5C 174.721,24.0283 175.887,24.695 177,25.5C 178.399,28.6293 180.065,31.6293 182,34.5C 186.485,50.1327 186.485,65.7994 182,81.5C 176.621,93.8845 169.955,105.551 162,116.5C 142.274,140.893 119.941,162.56 95,181.5C 68.0914,161.258 44.4248,137.591 24,110.5C 19.0799,102.328 14.4132,93.995 10,85.5C 9.32954,80.1186 7.66288,75.1186 5,70.5C 3.19905,56.9668 4.86572,43.9668 10,31.5C 12.8073,26.6977 16.3073,22.531 20.5,19C 22.0779,17.9055 23.7446,17.0722 25.5,16.5 Z"/></g>
<g><path style="opacity:0.212" fill="#dbe9f8" d="M 113.5,16.5 C 112.833,17.8333 111.833,18.8333 110.5,19.5C 110.5,17.5 111.5,16.5 113.5,16.5 Z"/></g>
<g><path style="opacity:0.431" fill="#c8dff3" d="M 110.5,19.5 C 110.167,21.8333 108.833,23.1667 106.5,23.5C 107.5,21.8333 108.833,20.5 110.5,19.5 Z"/></g>
<g><path style="opacity:0.718" fill="#91b3dc" d="M 13.5,18.5 C 12.2195,21.4474 10.2195,23.7807 7.5,25.5C 8.81032,22.5268 10.8103,20.1935 13.5,18.5 Z"/></g>
<g><path style="opacity:0.62" fill="#c1dbf3" d="M 106.5,23.5 C 105.66,25.8525 104.326,27.8525 102.5,29.5C 102.845,26.8021 104.178,24.8021 106.5,23.5 Z"/></g>
<g><path style="opacity:0.169" fill="#b5cce7" d="M 7.5,25.5 C 7.57298,27.0269 6.90632,28.0269 5.5,28.5C 5.42702,26.9731 6.09368,25.9731 7.5,25.5 Z"/></g>
<g><path style="opacity:0.812" fill="#a8cdec" d="M 102.5,29.5 C 102.843,31.4832 102.176,32.8166 100.5,33.5C 100.66,31.847 101.326,30.5137 102.5,29.5 Z"/></g>
<g><path style="opacity:0.004" fill="#fefffe" d="M -0.5,36.5 C 0.833333,37.1667 0.833333,37.8333 -0.5,38.5C -0.5,37.8333 -0.5,37.1667 -0.5,36.5 Z"/></g>
<g><path style="opacity:0.188" fill="#bbd8f0" d="M 100.5,33.5 C 100.771,35.3797 100.104,36.713 98.5,37.5C 98.6596,35.847 99.3263,34.5137 100.5,33.5 Z"/></g>
<g><path style="opacity:0.259" fill="#81a8d5" d="M 5.5,28.5 C 1.08621,41.0819 -0.580457,54.0819 0.5,67.5C 0.166667,67.5 -0.166667,67.5 -0.5,67.5C -0.5,60.1667 -0.5,52.8333 -0.5,45.5C 0.713511,41.3071 1.88018,36.9738 3,32.5C 3.6082,30.9336 4.44153,29.6002 5.5,28.5 Z"/></g>
<g><path style="opacity:0.91" fill="#88b8e4" d="M 98.5,37.5 C 98.977,40.9175 97.977,43.5841 95.5,45.5C 96.5122,42.7428 97.5122,40.0761 98.5,37.5 Z"/></g>
<g><path style="opacity:0.694" fill="#739cce" d="M 188.5,38.5 C 189.251,41.246 190.251,43.9127 191.5,46.5C 191.5,52.1667 191.5,57.8333 191.5,63.5C 190.167,63.8333 190.167,64.1667 191.5,64.5C 191.5,65.1667 191.5,65.8333 191.5,66.5C 190.06,71.4734 188.727,76.4734 187.5,81.5C 189.74,67.22 190.073,52.8866 188.5,38.5 Z"/></g>
<g><path style="opacity:0.643" fill="#749fcf" d="M 0.5,68.5 C 2.61843,73.8825 3.95176,79.5492 4.5,85.5C 3.77842,85.0825 3.27842,84.4158 3,83.5C 1.84432,78.5397 1.01099,73.5397 0.5,68.5 Z"/></g>
<g><path style="opacity:0.004" fill="#fefffe" d="M 191.5,75.5 C 191.5,75.8333 191.5,76.1667 191.5,76.5C 190.83,76.0187 190.83,75.6853 191.5,75.5 Z"/></g>
<g><path style="opacity:0.004" fill="#fefffe" d="M 191.5,79.5 C 191.5,79.8333 191.5,80.1667 191.5,80.5C 190.83,80.0187 190.83,79.6853 191.5,79.5 Z"/></g>
<g><path style="opacity:0.004" fill="#fefffe" d="M 190.5,80.5 C 190.631,81.2389 190.464,81.9056 190,82.5C 189.308,81.5632 189.475,80.8966 190.5,80.5 Z"/></g>
<g><path style="opacity:0.184" fill="#90b2d9" d="M 184.5,90.5 C 184.068,91.7095 183.401,92.7095 182.5,93.5C 182.285,91.8212 182.952,90.8212 184.5,90.5 Z"/></g>
<g><path style="opacity:0.357" fill="#96b9de" d="M 9.5,98.5 C 10.5,98.5 11.5,98.5 12.5,98.5C 12.5,99.8333 12.5,101.167 12.5,102.5C 11.6588,101.074 10.6588,99.7403 9.5,98.5 Z"/></g>
<g><path style="opacity:0.247" fill="#98b6db" d="M 179.5,99.5 C 179.011,100.995 178.345,102.329 177.5,103.5C 177.157,101.517 177.824,100.183 179.5,99.5 Z"/></g>
<g><path style="opacity:0.545" fill="#83a9d4" d="M 32.5,130.5 C 35.1667,131.167 36.8333,132.833 37.5,135.5C 35.5,134.167 33.8333,132.5 32.5,130.5 Z"/></g>
<g><path style="opacity:0.004" fill="#fefffe" d="M 147.5,142.5 C 148.525,142.897 148.692,143.563 148,144.5C 147.536,143.906 147.369,143.239 147.5,142.5 Z"/></g>
<g><path style="opacity:0.333" fill="#bfd2e9" d="M 45.5,145.5 C 47.5,145.5 48.5,146.5 48.5,148.5C 47.1667,147.833 46.1667,146.833 45.5,145.5 Z"/></g>
<g><path style="opacity:0.004" fill="#fefffe" d="M 145.5,145.5 C 146.833,146.167 146.833,146.167 145.5,145.5 Z"/></g>
<g><path style="opacity:0.004" fill="#fefffe" d="M 144.5,146.5 C 144.833,146.5 145.167,146.5 145.5,146.5C 145.315,147.17 144.981,147.17 144.5,146.5 Z"/></g>
<g><path style="opacity:0.886" fill="#7ba1d2" d="M 48.5,148.5 C 51.4274,149.097 53.4274,150.764 54.5,153.5C 51.9108,152.581 49.9108,150.914 48.5,148.5 Z"/></g>
<g><path style="opacity:0.004" fill="#f5f8fc" d="M 138.5,151.5 C 138.719,152.675 138.386,153.675 137.5,154.5C 136.893,154.376 136.56,154.043 136.5,153.5C 137.167,153.5 137.5,153.167 137.5,152.5C 137.5,151.833 137.833,151.5 138.5,151.5 Z"/></g>
<g><path style="opacity:0.004" fill="#fefffe" d="M 132.5,157.5 C 133.833,158.167 133.833,158.167 132.5,157.5 Z"/></g>
<g><path style="opacity:0.012" fill="#bad2ec" d="M 124.5,163.5 C 124.842,162.662 125.508,162.328 126.5,162.5C 126.591,164.698 125.925,165.031 124.5,163.5 Z"/></g>
<g><path style="opacity:0.467" fill="#aac5e3" d="M 68.5,167.5 C 70.5,167.5 71.5,168.5 71.5,170.5C 70.1667,169.833 69.1667,168.833 68.5,167.5 Z"/></g>
<g><path style="opacity:0.004" fill="#fefffe" d="M 122.5,167.5 C 123.833,168.167 123.833,168.167 122.5,167.5 Z"/></g>
<g><path style="opacity:0.004" fill="#fefffe" d="M 121.5,168.5 C 121.833,168.5 122.167,168.5 122.5,168.5C 122.315,169.17 121.981,169.17 121.5,168.5 Z"/></g>
<g><path style="opacity:0.004" fill="#fefffe" d="M 115.5,173.5 C 115.833,173.5 116.167,173.5 116.5,173.5C 116.315,174.17 115.981,174.17 115.5,173.5 Z"/></g>
<g><path style="opacity:0.004" fill="#fefffe" d="M 114.5,174.5 C 114.833,174.5 115.167,174.5 115.5,174.5C 115.315,175.17 114.981,175.17 114.5,174.5 Z"/></g>
<g><path style="opacity:0.004" fill="#fefffe" d="M 112.5,176.5 C 113.833,177.167 113.833,177.167 112.5,176.5 Z"/></g>
<g><path style="opacity:0.227" fill="#bbd1e8" d="M 89.5,185.5 C 91.0269,185.427 92.0269,186.094 92.5,187.5C 90.9731,187.573 89.9731,186.906 89.5,185.5 Z"/></g>
<g><path style="opacity:0.031" fill="#84abd5" d="M 99.5,186.5 C 97.2866,188.312 94.9533,188.645 92.5,187.5C 94.8056,187.007 97.139,186.674 99.5,186.5 Z"/></g>
<g><path style="opacity:0.004" fill="#fefffe" d="M 191.5,190.5 C 191.5,190.833 191.5,191.167 191.5,191.5C 190.83,191.019 190.83,190.685 191.5,190.5 Z"/></g>
</svg>
