<?xml version="1.0" encoding="UTF-8"?>
<!DOCTYPE svg PUBLIC "-//W3C//DTD SVG 1.1//EN" "http://www.w3.org/Graphics/SVG/1.1/DTD/svg11.dtd">
<svg xmlns="http://www.w3.org/2000/svg" version="1.1" width="16px" height="16px" style="shape-rendering:geometricPrecision; text-rendering:geometricPrecision; image-rendering:optimizeQuality; fill-rule:evenodd; clip-rule:evenodd" xmlns:xlink="http://www.w3.org/1999/xlink">
<g><path style="opacity:0.365" fill="#358bd3" d="M 2.5,0.5 C 2.5,0.166667 2.5,-0.166667 2.5,-0.5C 3.83333,-0.5 5.16667,-0.5 6.5,-0.5C 7.16667,0.833333 7.83333,0.833333 8.5,-0.5C 10.1667,-0.5 11.8333,-0.5 13.5,-0.5C 13.5,-0.166667 13.5,0.166667 13.5,0.5C 13.1667,0.5 12.8333,0.5 12.5,0.5C 10.5165,0.383211 8.84983,1.04988 7.5,2.5C 6.37765,1.36977 5.04432,0.703105 3.5,0.5C 3.16667,0.5 2.83333,0.5 2.5,0.5 Z"/></g>
<g><path style="opacity:1" fill="#1c82de" d="M 2.5,0.5 C 2.83333,0.5 3.16667,0.5 3.5,0.5C 3.33101,7.48633 6.16434,9.153 12,5.5C 12.4935,3.86586 12.6602,2.19919 12.5,0.5C 12.8333,0.5 13.1667,0.5 13.5,0.5C 14.0184,1.5774 14.3517,2.74407 14.5,4C 13.6216,5.80007 12.955,7.63341 12.5,9.5C 11.5,9.5 10.5,9.5 9.5,9.5C 8.16667,9.5 6.83333,9.5 5.5,9.5C 3.04852,7.10399 2.04852,4.10399 2.5,0.5 Z"/></g>
<g><path style="opacity:1" fill="#2193ef" d="M 3.5,0.5 C 5.04432,0.703105 6.37765,1.36977 7.5,2.5C 8.84983,1.04988 10.5165,0.383211 12.5,0.5C 12.6602,2.19919 12.4935,3.86586 12,5.5C 6.16434,9.153 3.33101,7.48633 3.5,0.5 Z"/></g>
<g><path style="opacity:1" fill="#1a78d3" d="M 2.5,0.5 C 2.04852,4.10399 3.04852,7.10399 5.5,9.5C 4.50838,9.32842 3.84171,9.66175 3.5,10.5C 1.46719,9.10165 0.467193,7.10165 0.5,4.5C 0.340239,2.64545 1.00691,1.31212 2.5,0.5 Z"/></g>
<g><path style="opacity:0.78" fill="#2972bd" d="M 0.5,-0.5 C 1.16667,-0.5 1.83333,-0.5 2.5,-0.5C 2.5,-0.166667 2.5,0.166667 2.5,0.5C 1.00691,1.31212 0.340239,2.64545 0.5,4.5C 0.467193,7.10165 1.46719,9.10165 3.5,10.5C 5.03614,13.0922 7.36947,14.0922 10.5,13.5C 10.1667,14.1667 9.83333,14.8333 9.5,15.5C 8.16667,15.5 6.83333,15.5 5.5,15.5C 3.47073,13.1415 1.47073,10.8082 -0.5,8.5C -0.5,5.83333 -0.5,3.16667 -0.5,0.5C 0.166667,0.5 0.5,0.166667 0.5,-0.5 Z"/></g>
<g><path style="opacity:1" fill="#1975d0" d="M 5.5,9.5 C 6.83333,9.5 8.16667,9.5 9.5,9.5C 10.2341,10.7079 10.5674,12.0413 10.5,13.5C 7.36947,14.0922 5.03614,13.0922 3.5,10.5C 3.84171,9.66175 4.50838,9.32842 5.5,9.5 Z"/></g>
<g><path style="opacity:1" fill="#2473c4" d="M 13.5,-0.5 C 13.8333,-0.5 14.1667,-0.5 14.5,-0.5C 14.5,0.166667 14.8333,0.5 15.5,0.5C 15.5,3.16667 15.5,5.83333 15.5,8.5C 14.194,10.4727 12.5273,12.1394 10.5,13.5C 10.5674,12.0413 10.2341,10.7079 9.5,9.5C 10.5,9.5 11.5,9.5 12.5,9.5C 12.955,7.63341 13.6216,5.80007 14.5,4C 14.3517,2.74407 14.0184,1.5774 13.5,0.5C 13.5,0.166667 13.5,-0.166667 13.5,-0.5 Z"/></g>
</svg>
