<?xml version="1.0" encoding="UTF-8"?>
<!DOCTYPE svg PUBLIC "-//W3C//DTD SVG 1.1//EN" "http://www.w3.org/Graphics/SVG/1.1/DTD/svg11.dtd">
<svg xmlns="http://www.w3.org/2000/svg" version="1.1" width="32px" height="32px" style="shape-rendering:geometricPrecision; text-rendering:geometricPrecision; image-rendering:optimizeQuality; fill-rule:evenodd; clip-rule:evenodd" xmlns:xlink="http://www.w3.org/1999/xlink">
<g><path style="opacity:0.42" fill="#3a8dd3" d="M 4.5,-0.5 C 6.5,-0.5 8.5,-0.5 10.5,-0.5C 12.4516,0.784748 14.1182,2.45141 15.5,4.5C 16.6046,2.3886 18.2712,1.05527 20.5,0.5C 19.0883,2.98011 17.4216,5.31344 15.5,7.5C 13.9596,5.61324 12.2929,3.77991 10.5,2C 9.55198,1.51722 8.55198,1.35055 7.5,1.5C 6.83333,1.5 6.16667,1.5 5.5,1.5C 5.16667,1.5 4.83333,1.5 4.5,1.5C 4.5,1.16667 4.5,0.833333 4.5,0.5C 4.5,0.166667 4.5,-0.166667 4.5,-0.5 Z"/></g>
<g><path style="opacity:0.576" fill="#3075bb" d="M 20.5,0.5 C 20.5,0.166667 20.5,-0.166667 20.5,-0.5C 22.5,-0.5 24.5,-0.5 26.5,-0.5C 28.1423,0.802988 29.8089,2.13632 31.5,3.5C 31.5,7.16667 31.5,10.8333 31.5,14.5C 27.587,21.0824 22.587,26.7491 16.5,31.5C 15.5,31.5 14.5,31.5 13.5,31.5C 8.04793,26.3906 3.38126,20.724 -0.5,14.5C -0.5,10.8333 -0.5,7.16667 -0.5,3.5C 0.922032,2.07501 2.5887,1.07501 4.5,0.5C 4.5,0.833333 4.5,1.16667 4.5,1.5C 3.20577,2.2899 2.0391,3.2899 1,4.5C 0.84208,15.3854 5.50875,23.7188 15,29.5C 24.6515,24.2245 29.6515,16.2245 30,5.5C 29.2079,3.35631 27.7079,2.02298 25.5,1.5C 24.0813,0.548855 22.4147,0.215521 20.5,0.5 Z"/></g>
<g><path style="opacity:1" fill="#1a77d2" d="M 4.5,1.5 C 4.83333,1.5 5.16667,1.5 5.5,1.5C 2.5462,11.0617 6.0462,16.7284 16,18.5C 20.7006,18.1344 24.034,15.8011 26,11.5C 26.6588,8.11192 26.4922,4.77859 25.5,1.5C 27.7079,2.02298 29.2079,3.35631 30,5.5C 29.6515,16.2245 24.6515,24.2245 15,29.5C 5.50875,23.7188 0.84208,15.3854 1,4.5C 2.0391,3.2899 3.20577,2.2899 4.5,1.5 Z"/></g>
<g><path style="opacity:1" fill="#1d88e4" d="M 5.5,1.5 C 6.16667,1.5 6.83333,1.5 7.5,1.5C 5.83281,11.3241 9.83281,15.8241 19.5,15C 24.0312,12.0731 25.3645,8.07306 23.5,3C 23.8361,1.97008 24.5028,1.47008 25.5,1.5C 26.4922,4.77859 26.6588,8.11192 26,11.5C 24.034,15.8011 20.7006,18.1344 16,18.5C 6.0462,16.7284 2.5462,11.0617 5.5,1.5 Z"/></g>
<g><path style="opacity:1" fill="#2194f0" d="M 20.5,0.5 C 22.4147,0.215521 24.0813,0.548855 25.5,1.5C 24.5028,1.47008 23.8361,1.97008 23.5,3C 25.3645,8.07306 24.0312,12.0731 19.5,15C 9.83281,15.8241 5.83281,11.3241 7.5,1.5C 8.55198,1.35055 9.55198,1.51722 10.5,2C 12.2929,3.77991 13.9596,5.61324 15.5,7.5C 17.4216,5.31344 19.0883,2.98011 20.5,0.5 Z"/></g>
</svg>
