<?xml version="1.0" encoding="UTF-8"?>
<!DOCTYPE svg PUBLIC "-//W3C//DTD SVG 1.1//EN" "http://www.w3.org/Graphics/SVG/1.1/DTD/svg11.dtd">
<svg xmlns="http://www.w3.org/2000/svg" version="1.1" width="270px" height="270px" style="shape-rendering:geometricPrecision; text-rendering:geometricPrecision; image-rendering:optimizeQuality; fill-rule:evenodd; clip-rule:evenodd" xmlns:xlink="http://www.w3.org/1999/xlink">
<g><path style="opacity:0.373" fill="#6d9ed1" d="M 170.5,52.5 C 175.541,52.8381 179.874,54.5048 183.5,57.5C 178.872,56.4051 174.539,54.7384 170.5,52.5 Z"/></g>
<g><path style="opacity:0.998" fill="#418dd2" d="M 144.5,62.5 C 148.177,60.1446 151.511,57.4779 154.5,54.5C 156.102,52.9261 158.102,52.2594 160.5,52.5C 158.9,53.6444 157.233,54.8111 155.5,56C 156.094,56.4643 156.761,56.631 157.5,56.5C 145.802,64.0467 138.636,74.7134 136,88.5C 135.333,89.1667 134.667,89.8333 134,90.5C 131.216,77.062 124.383,66.2287 113.5,58C 112.552,57.5172 111.552,57.3505 110.5,57.5C 108.735,56.5386 106.735,56.2053 104.5,56.5C 102.833,56.5 101.167,56.5 99.5,56.5C 98.1667,56.5 96.8333,56.5 95.5,56.5C 94.8333,56.5 94.1667,56.5 93.5,56.5C 89.7277,55.4183 86.3944,56.4183 83.5,59.5C 83.5106,57.9826 84.1772,56.8159 85.5,56C 101.024,48.1265 114.524,50.6265 126,63.5C 129.296,67.8931 132.13,72.5597 134.5,77.5C 136.601,71.6169 139.935,66.6169 144.5,62.5 Z"/></g>
<g><path style="opacity:0.816" fill="#80b4e3" d="M 154.5,54.5 C 151.511,57.4779 148.177,60.1446 144.5,62.5C 146.61,58.2512 149.944,55.5846 154.5,54.5 Z"/></g>
<g><path style="opacity:0.51" fill="#79a4d2" d="M 83.5,59.5 C 82.4154,61.5869 80.7488,62.9202 78.5,63.5C 79.5846,61.4131 81.2512,60.0798 83.5,59.5 Z"/></g>
<g><path style="opacity:0.957" fill="#739bcf" d="M 78.5,63.5 C 78.4077,65.8477 77.4077,67.5144 75.5,68.5C 75.7497,66.326 76.7497,64.6594 78.5,63.5 Z"/></g>
<g><path style="opacity:0.188" fill="#89afd8" d="M 73.5,72.5 C 73.7062,75.4951 73.0395,78.1617 71.5,80.5C 71.5651,77.5718 72.2318,74.9052 73.5,72.5 Z"/></g>
<g><path style="opacity:0.004" fill="#fefffe" d="M 196.5,101.5 C 197.525,101.897 197.692,102.563 197,103.5C 196.536,102.906 196.369,102.239 196.5,101.5 Z"/></g>
<g><path style="opacity:0.267" fill="#6b99cd" d="M 73.5,102.5 C 75.9308,106.111 77.5975,110.111 78.5,114.5C 76.0692,110.889 74.4025,106.889 73.5,102.5 Z"/></g>
<g><path style="opacity:0.616" fill="#85a8d4" d="M 93.5,136.5 C 96.5,136.833 98.1667,138.5 98.5,141.5C 96.5,140.167 94.8333,138.5 93.5,136.5 Z"/></g>
<g><path style="opacity:1" fill="#3676bc" d="M 170.5,52.5 C 174.539,54.7384 178.872,56.4051 183.5,57.5C 193.362,64.7283 198.028,74.5617 197.5,87C 197.54,98.0101 194.707,108.177 189,117.5C 174.341,139.658 156.174,158.325 134.5,173.5C 133.062,173.281 131.729,172.781 130.5,172C 118.95,162.613 108.283,152.447 98.5,141.5C 98.1667,138.5 96.5,136.833 93.5,136.5C 87.7181,129.715 82.7181,122.382 78.5,114.5C 77.5975,110.111 75.9308,106.111 73.5,102.5C 71.6556,95.3465 70.9889,88.0131 71.5,80.5C 73.0395,78.1617 73.7062,75.4951 73.5,72.5C 73.6596,70.847 74.3263,69.5137 75.5,68.5C 77.4077,67.5144 78.4077,65.8477 78.5,63.5C 80.7488,62.9202 82.4154,61.5869 83.5,59.5C 86.3944,56.4183 89.7277,55.4183 93.5,56.5C 91.5,58.1667 89.5,59.8333 87.5,61.5C 81.0069,64.7839 77.1736,70.1172 76,77.5C 74.5378,88.5244 75.8712,99.191 80,109.5C 87.6445,123.128 96.9779,135.461 108,146.5C 114.522,152.023 120.688,157.857 126.5,164C 129.558,165.218 132.224,167.051 134.5,169.5C 152.102,155.942 167.602,140.275 181,122.5C 186.355,114.741 190.355,106.407 193,97.5C 193.95,89.0339 193.283,80.7006 191,72.5C 190.009,69.3596 188.176,67.0263 185.5,65.5C 184.167,63.5 182.5,61.8333 180.5,60.5C 178.062,58.7328 175.395,57.3994 172.5,56.5C 171.167,56.5 169.833,56.5 168.5,56.5C 166.5,56.5 164.5,56.5 162.5,56.5C 160.833,56.5 159.167,56.5 157.5,56.5C 156.761,56.631 156.094,56.4643 155.5,56C 157.233,54.8111 158.9,53.6444 160.5,52.5C 163.833,51.1667 167.167,51.1667 170.5,52.5 Z"/></g>
<g><path style="opacity:1" fill="#1975d1" d="M 87.5,61.5 C 81.1382,88.2393 89.1382,109.739 111.5,126C 143.193,139.399 167.026,130.899 183,100.5C 187.229,89.0212 188.063,77.3545 185.5,65.5C 188.176,67.0263 190.009,69.3596 191,72.5C 193.283,80.7006 193.95,89.0339 193,97.5C 190.355,106.407 186.355,114.741 181,122.5C 167.602,140.275 152.102,155.942 134.5,169.5C 132.224,167.051 129.558,165.218 126.5,164C 120.688,157.857 114.522,152.023 108,146.5C 96.9779,135.461 87.6445,123.128 80,109.5C 75.8712,99.191 74.5378,88.5244 76,77.5C 77.1736,70.1172 81.0069,64.7839 87.5,61.5 Z"/></g>
<g><path style="opacity:1" fill="#1a7bd7" d="M 93.5,56.5 C 94.1667,56.5 94.8333,56.5 95.5,56.5C 85.1553,81.2742 90.1553,102.441 110.5,120C 135.89,133.789 157.39,129.289 175,106.5C 182.831,91.9372 184.664,76.6038 180.5,60.5C 182.5,61.8333 184.167,63.5 185.5,65.5C 188.063,77.3545 187.229,89.0212 183,100.5C 167.026,130.899 143.193,139.399 111.5,126C 89.1382,109.739 81.1382,88.2393 87.5,61.5C 89.5,59.8333 91.5,58.1667 93.5,56.5 Z"/></g>
<g><path style="opacity:1" fill="#1b80dd" d="M 95.5,56.5 C 96.8333,56.5 98.1667,56.5 99.5,56.5C 89.1265,80.1714 93.7932,100.338 113.5,117C 133.523,127.632 151.69,125.132 168,109.5C 180.136,92.6571 181.636,74.9904 172.5,56.5C 175.395,57.3994 178.062,58.7328 180.5,60.5C 184.664,76.6038 182.831,91.9372 175,106.5C 157.39,129.289 135.89,133.789 110.5,120C 90.1553,102.441 85.1553,81.2742 95.5,56.5 Z"/></g>
<g><path style="opacity:1" fill="#1d86e2" d="M 99.5,56.5 C 101.167,56.5 102.833,56.5 104.5,56.5C 95.3581,75.1659 97.3581,92.4992 110.5,108.5C 120.378,117.722 132.045,120.889 145.5,118C 163.894,111.563 173.561,98.5635 174.5,79C 173.818,71.1032 171.818,63.6032 168.5,56.5C 169.833,56.5 171.167,56.5 172.5,56.5C 181.636,74.9904 180.136,92.6571 168,109.5C 151.69,125.132 133.523,127.632 113.5,117C 93.7932,100.338 89.1265,80.1714 99.5,56.5 Z"/></g>
<g><path style="opacity:1" fill="#1e8ce9" d="M 104.5,56.5 C 106.735,56.2053 108.735,56.5386 110.5,57.5C 99.8114,72.5023 99.9781,87.5023 111,102.5C 127.31,118.035 143.977,118.368 161,103.5C 166.112,96.1344 168.946,87.9677 169.5,79C 169.634,70.5771 167.301,63.0771 162.5,56.5C 164.5,56.5 166.5,56.5 168.5,56.5C 171.818,63.6032 173.818,71.1032 174.5,79C 173.561,98.5635 163.894,111.563 145.5,118C 132.045,120.889 120.378,117.722 110.5,108.5C 97.3581,92.4992 95.3581,75.1659 104.5,56.5 Z"/></g>
<g><path style="opacity:1" fill="#2095f2" d="M 157.5,56.5 C 159.167,56.5 160.833,56.5 162.5,56.5C 167.301,63.0771 169.634,70.5771 169.5,79C 168.946,87.9677 166.112,96.1344 161,103.5C 143.977,118.368 127.31,118.035 111,102.5C 99.9781,87.5023 99.8114,72.5023 110.5,57.5C 111.552,57.3505 112.552,57.5172 113.5,58C 124.383,66.2287 131.216,77.062 134,90.5C 134.667,89.8333 135.333,89.1667 136,88.5C 138.636,74.7134 145.802,64.0467 157.5,56.5 Z"/></g>
</svg>
