<?xml version="1.0" standalone="no"?>
<!DOCTYPE svg PUBLIC "-//W3C//DTD SVG 20010904//EN"
 "http://www.w3.org/TR/2001/REC-SVG-20010904/DTD/svg10.dtd">
<svg version="1.0" xmlns="http://www.w3.org/2000/svg"
 width="421.000000pt" height="421.000000pt" viewBox="0 0 421.000000 421.000000"
 preserveAspectRatio="xMidYMid meet">
<metadata>
Created by potrace 1.14, written by Peter Selinger 2001-2017
</metadata>
<g transform="translate(0.000000,421.000000) scale(0.100000,-0.100000)"
fill="#000000" stroke="none">
<path d="M935 4099 c-22 -4 -56 -10 -75 -13 -79 -13 -98 -18 -157 -41 -34 -14
-66 -25 -72 -25 -6 0 -30 -9 -53 -19 -44 -20 -78 -34 -89 -35 -8 -1 -42 -36
-34 -36 3 0 -3 -10 -15 -22 -11 -12 -20 -25 -20 -29 0 -3 -18 -18 -39 -32 -46
-31 -161 -147 -161 -163 0 -7 -6 -14 -14 -17 -7 -3 -23 -26 -36 -51 -12 -25
-26 -46 -31 -46 -5 0 -9 -7 -9 -16 0 -8 -10 -36 -22 -62 -12 -26 -23 -54 -25
-62 -1 -8 -11 -46 -22 -85 -10 -38 -22 -99 -26 -135 -4 -36 -9 -68 -11 -71 -6
-10 -5 -270 1 -324 3 -27 7 -84 10 -126 2 -42 9 -88 14 -102 6 -15 8 -27 6
-27 -2 0 0 -12 6 -27 12 -30 18 -54 23 -93 8 -51 20 -86 53 -152 18 -37 33
-74 33 -83 0 -8 5 -15 10 -15 6 0 10 -11 10 -25 0 -14 5 -25 10 -25 6 0 10 -7
10 -15 0 -8 5 -15 10 -15 6 0 10 -11 10 -24 0 -12 11 -35 24 -49 14 -15 28
-37 32 -49 4 -13 20 -42 35 -65 16 -23 29 -45 29 -50 0 -8 44 -67 95 -128 14
-16 25 -35 25 -42 0 -12 76 -119 108 -151 7 -8 19 -29 27 -48 8 -19 21 -37 29
-40 9 -3 25 -21 36 -39 12 -19 30 -37 40 -40 11 -4 20 -12 20 -19 0 -8 17 -31
38 -52 21 -22 47 -52 57 -68 11 -16 31 -36 45 -45 15 -9 47 -41 73 -71 25 -30
55 -65 67 -78 11 -12 20 -26 20 -30 0 -15 202 -212 217 -212 5 0 17 -14 27
-30 9 -17 29 -38 44 -48 15 -9 33 -24 39 -33 7 -9 33 -29 57 -43 25 -14 48
-35 51 -46 4 -11 11 -18 16 -15 5 4 9 3 9 -2 0 -8 15 -27 82 -106 18 -21 52
-49 75 -63 24 -14 43 -28 43 -32 0 -4 12 -15 28 -24 15 -9 51 -39 79 -67 29
-28 60 -51 68 -51 9 0 41 -25 71 -55 31 -30 60 -55 65 -55 5 0 9 -4 9 -9 0 -5
14 -14 30 -21 17 -7 30 -16 30 -21 0 -5 7 -9 15 -9 8 0 15 4 15 9 0 9 38 24
54 22 4 -1 17 8 27 20 10 12 19 19 19 15 0 -4 17 12 38 37 37 44 100 93 115
89 4 -1 7 2 7 7 0 5 18 22 40 39 22 16 37 32 33 35 -3 4 2 7 12 7 9 0 34 15
54 33 21 17 49 42 64 54 15 13 27 28 27 34 0 6 9 9 20 6 11 -3 18 -2 16 2 -3
4 15 29 40 56 24 27 47 57 50 67 5 16 16 22 36 19 4 0 15 9 25 22 10 12 34 35
53 51 19 16 44 42 56 57 11 16 24 26 27 22 4 -3 7 -1 7 5 0 7 7 12 15 12 8 0
15 4 15 9 0 14 62 71 77 71 8 0 12 4 9 9 -3 5 20 31 51 57 80 69 123 111 117
116 -2 3 13 23 34 46 21 22 43 51 49 65 6 13 30 38 52 53 22 16 44 39 50 51
10 22 46 67 69 87 45 39 72 69 72 81 0 8 8 19 19 24 10 6 24 24 31 41 7 16 18
30 24 30 6 0 24 21 41 48 16 26 40 56 52 68 13 12 24 31 26 42 2 12 14 34 27
49 13 15 38 53 55 84 18 31 41 66 51 77 35 38 41 48 53 83 6 20 21 46 32 57
11 12 17 27 14 32 -3 5 4 19 15 30 22 22 65 109 74 153 4 15 22 60 41 100 19
41 35 81 35 90 0 8 7 42 15 74 8 32 17 78 20 103 8 72 15 103 27 117 7 9 7 13
-1 13 -7 0 -9 9 -5 24 8 33 11 238 4 303 -4 30 -2 57 4 63 7 7 7 10 0 10 -9 0
-15 24 -45 180 -6 30 -27 89 -46 130 -19 41 -47 100 -61 130 -14 30 -48 78
-76 106 -28 28 -65 67 -83 85 -17 19 -49 50 -70 70 -21 20 -51 52 -67 72 -17
21 -41 39 -60 43 -17 3 -49 15 -72 25 -22 11 -49 21 -60 24 -10 2 -49 15 -86
29 -36 14 -84 28 -105 31 -21 3 -56 9 -78 13 -45 9 -242 8 -265 -1 -32 -13
-94 -26 -101 -21 -7 4 -24 -2 -96 -32 -17 -8 -35 -14 -40 -14 -4 0 -24 -10
-43 -22 -19 -12 -44 -23 -55 -25 -11 -2 -27 -12 -36 -23 -9 -10 -20 -16 -24
-12 -5 6 -28 -22 -30 -38 -1 -7 -73 -80 -79 -80 -9 0 -56 -47 -56 -56 0 -14
-53 -69 -72 -77 -20 -7 -87 -96 -88 -114 0 -7 -4 -13 -10 -13 -5 0 -9 -3 -8
-7 3 -14 -32 -88 -47 -99 -8 -6 -16 -20 -18 -30 -2 -10 -9 -32 -15 -47 -7 -15
-15 -40 -19 -55 -3 -15 -22 -62 -42 -104 -36 -76 -37 -77 -48 -50 -7 15 -14
36 -16 47 -1 11 -9 31 -16 44 -7 13 -15 38 -18 55 -5 34 -46 118 -74 155 -11
13 -19 32 -19 42 0 9 -6 24 -14 31 -7 8 -20 27 -29 44 -8 16 -27 36 -41 43
-14 8 -26 20 -28 28 -4 16 -57 78 -155 176 -40 41 -73 77 -73 81 0 12 -54 55
-71 56 -8 0 -24 7 -35 15 -10 8 -36 19 -57 25 -23 7 -35 15 -31 22 4 7 3 8 -5
4 -11 -7 -67 7 -103 25 -9 5 -31 11 -49 14 -18 3 -36 8 -41 11 -14 9 -230 11
-273 3z"/>
</g>
</svg>
