<?xml version="1.0" encoding="UTF-8"?>
<!DOCTYPE svg PUBLIC "-//W3C//DTD SVG 1.1//EN" "http://www.w3.org/Graphics/SVG/1.1/DTD/svg11.dtd">
<svg xmlns="http://www.w3.org/2000/svg" version="1.1" width="64px" height="64px" style="shape-rendering:geometricPrecision; text-rendering:geometricPrecision; image-rendering:optimizeQuality; fill-rule:evenodd; clip-rule:evenodd" xmlns:xlink="http://www.w3.org/1999/xlink">
<g><path style="opacity:0.967" fill="#fa5151" d="M 24.5,7.5 C 29.1785,7.33418 33.8452,7.50085 38.5,8C 41.0414,9.84836 42.0414,12.3484 41.5,15.5C 44.8984,15.1796 48.2317,15.513 51.5,16.5C 53.2628,19.7889 52.4295,22.1223 49,23.5C 48.4941,32.5781 47.4941,41.5781 46,50.5C 41.55,53.0078 36.7167,54.0078 31.5,53.5C 27.0811,53.5637 22.7478,53.0637 18.5,52C 17.2986,51.0975 16.4652,49.9308 16,48.5C 15.3843,40.1626 14.7176,31.8293 14,23.5C 10.5453,21.9056 9.71196,19.4056 11.5,16C 14.8168,15.5017 18.1501,15.335 21.5,15.5C 21.0156,12.2118 22.0156,9.54517 24.5,7.5 Z M 21.5,23.5 C 22.552,23.3505 23.552,23.5172 24.5,24C 23.358,30.0844 23.1913,36.2511 24,42.5C 24.9525,44.5922 26.2859,44.9255 28,43.5C 28.6667,37.8333 28.6667,32.1667 28,26.5C 26.0069,23.7198 26.8403,22.8865 30.5,24C 29.3567,30.4184 29.19,36.9184 30,43.5C 31,44.8333 32,44.8333 33,43.5C 33.81,36.9184 33.6433,30.4184 32.5,24C 36.1597,22.8865 36.9931,23.7198 35,26.5C 34.3333,32.1667 34.3333,37.8333 35,43.5C 36.7141,44.9255 38.0475,44.5922 39,42.5C 39.8087,36.2511 39.642,30.0844 38.5,24C 39.448,23.5172 40.448,23.3505 41.5,23.5C 40.9783,30.8259 40.4783,38.1593 40,45.5C 34.3333,46.8333 28.6667,46.8333 23,45.5C 22.5217,38.1593 22.0217,30.8259 21.5,23.5 Z"/></g>
</svg>
