<?xml version="1.0" encoding="UTF-8"?>
<!DOCTYPE svg PUBLIC "-//W3C//DTD SVG 1.1//EN" "http://www.w3.org/Graphics/SVG/1.1/DTD/svg11.dtd">
<svg xmlns="http://www.w3.org/2000/svg" version="1.1" width="58px" height="57px" style="shape-rendering:geometricPrecision; text-rendering:geometricPrecision; image-rendering:optimizeQuality; fill-rule:evenodd; clip-rule:evenodd" xmlns:xlink="http://www.w3.org/1999/xlink">
<g><path style="opacity:0.977" fill="#39c4f0" d="M 16.5,-0.5 C 23.5,-0.5 30.5,-0.5 37.5,-0.5C 39.4261,0.486147 41.4261,1.48615 43.5,2.5C 45.1423,3.80299 46.8089,5.13632 48.5,6.5C 50.5293,8.85847 52.5293,11.1918 54.5,13.5C 55.3382,13.8417 55.6716,14.5084 55.5,15.5C 55.7215,18.0673 56.3882,20.4006 57.5,22.5C 57.5,27.1667 57.5,31.8333 57.5,36.5C 56.2564,39.9823 54.2564,42.9823 51.5,45.5C 49.5,47.5 47.5,49.5 45.5,51.5C 43.6316,52.2632 41.9649,53.2632 40.5,54.5C 39.5,55.1667 38.5,55.8333 37.5,56.5C 31.5,56.5 25.5,56.5 19.5,56.5C 19.5,56.1667 19.5,55.8333 19.5,55.5C 18.0697,54.4625 16.403,53.7959 14.5,53.5C 13.7095,52.5987 12.7095,51.9321 11.5,51.5C 9.16667,49.1667 6.83333,46.8333 4.5,44.5C 2.3199,42.1367 0.65323,39.47 -0.5,36.5C -0.5,32.1667 -0.5,27.8333 -0.5,23.5C 0.531006,21.0392 1.19767,18.3725 1.5,15.5C 2.40128,14.7095 3.06795,13.7095 3.5,12.5C 4.80299,10.8577 6.13632,9.19107 7.5,7.5C 9.16667,6.5 10.5,5.16667 11.5,3.5C 13.1667,2.16667 14.8333,0.833333 16.5,-0.5 Z M 24.5,3.5 C 40.3239,3.31738 49.9906,10.984 53.5,26.5C 48.5708,48.9604 35.5708,55.7937 14.5,47C 1.2374,34.0181 1.2374,21.0181 14.5,8C 17.8153,6.1702 21.1486,4.6702 24.5,3.5 Z"/></g>
<g><path style="opacity:0.709" fill="#fefffe" d="M 37.5,-0.5 C 38.8333,-0.5 40.1667,-0.5 41.5,-0.5C 42.5511,0.222348 43.2178,1.22235 43.5,2.5C 41.4261,1.48615 39.4261,0.486147 37.5,-0.5 Z"/></g>
<g><path style="opacity:0.58" fill="#fefffe" d="M 43.5,2.5 C 46.3667,2.36922 48.0334,3.70256 48.5,6.5C 46.8089,5.13632 45.1423,3.80299 43.5,2.5 Z"/></g>
<g><path style="opacity:0.531" fill="#fefffe" d="M 11.5,3.5 C 10.5,5.16667 9.16667,6.5 7.5,7.5C 7.83333,5.16667 9.16667,3.83333 11.5,3.5 Z"/></g>
<g><path style="opacity:0.579" fill="#fefffe" d="M 48.5,6.5 C 51.9464,7.61182 53.9464,9.94515 54.5,13.5C 52.5293,11.1918 50.5293,8.85847 48.5,6.5 Z"/></g>
<g><path style="opacity:0.612" fill="#fefffe" d="M 7.5,7.5 C 6.13632,9.19107 4.80299,10.8577 3.5,12.5C 3.36922,9.63326 4.70256,7.96659 7.5,7.5 Z"/></g>
<g><path style="opacity:1" fill="#56c9f2" d="M 27.5,10.5 C 28.8221,10.33 29.9887,10.6634 31,11.5C 31.499,15.8206 31.6657,20.1539 31.5,24.5C 36.2318,24.3776 40.8984,24.8776 45.5,26C 47.0172,28.7606 46.1838,30.5939 43,31.5C 39.5915,30.3781 36.0915,30.2114 32.5,31C 31.6998,35.08 31.1998,39.2467 31,43.5C 29.6667,44.8333 28.3333,44.8333 27,43.5C 26.8002,39.2467 26.3002,35.08 25.5,31C 21.9085,30.2114 18.4085,30.3781 15,31.5C 10.0891,28.2218 10.5891,26.0551 16.5,25C 19.8168,24.5017 23.1501,24.335 26.5,24.5C 26.7592,20.7604 26.4259,17.0938 25.5,13.5C 26.1925,12.4822 26.8592,11.4822 27.5,10.5 Z"/></g>
<g><path style="opacity:0.634" fill="#fefffe" d="M 3.5,12.5 C 3.06795,13.7095 2.40128,14.7095 1.5,15.5C 1.28519,13.8212 1.95186,12.8212 3.5,12.5 Z"/></g>
<g><path style="opacity:0.838" fill="#fefffe" d="M 1.5,15.5 C 1.19767,18.3725 0.531006,21.0392 -0.5,23.5C -0.5,21.5 -0.5,19.5 -0.5,17.5C 0.166667,16.8333 0.833333,16.1667 1.5,15.5 Z"/></g>
<g><path style="opacity:0.794" fill="#fefffe" d="M 55.5,15.5 C 56.1667,16.1667 56.8333,16.8333 57.5,17.5C 57.5,19.1667 57.5,20.8333 57.5,22.5C 56.3882,20.4006 55.7215,18.0673 55.5,15.5 Z"/></g>
<g><path style="opacity:0.52" fill="#fefffe" d="M 4.5,44.5 C 6.83333,46.8333 9.16667,49.1667 11.5,51.5C 7.83333,50.5 5.5,48.1667 4.5,44.5 Z"/></g>
<g><path style="opacity:0.547" fill="#fefffe" d="M 51.5,45.5 C 50.8333,48.8333 48.8333,50.8333 45.5,51.5C 47.5,49.5 49.5,47.5 51.5,45.5 Z"/></g>
<g><path style="opacity:0.644" fill="#fefffe" d="M 11.5,51.5 C 12.7095,51.9321 13.7095,52.5987 14.5,53.5C 12.8212,53.7148 11.8212,53.0481 11.5,51.5 Z"/></g>
<g><path style="opacity:0.617" fill="#fefffe" d="M 45.5,51.5 C 44.7002,53.7409 43.0336,54.7409 40.5,54.5C 41.9649,53.2632 43.6316,52.2632 45.5,51.5 Z"/></g>
<g><path style="opacity:0.757" fill="#fefffe" d="M 14.5,53.5 C 16.403,53.7959 18.0697,54.4625 19.5,55.5C 17.302,55.8799 15.6354,55.2132 14.5,53.5 Z"/></g>
</svg>
