<?xml version="1.0" encoding="UTF-8"?>
<!DOCTYPE svg PUBLIC "-//W3C//DTD SVG 1.1//EN" "http://www.w3.org/Graphics/SVG/1.1/DTD/svg11.dtd">
<svg xmlns="http://www.w3.org/2000/svg" version="1.1" width="65px" height="56px" style="shape-rendering:geometricPrecision; text-rendering:geometricPrecision; image-rendering:optimizeQuality; fill-rule:evenodd; clip-rule:evenodd" xmlns:xlink="http://www.w3.org/1999/xlink">
<g><path style="opacity:0.032" fill="#fefffe" d="M 3.5,-0.5 C 17.8333,-0.5 32.1667,-0.5 46.5,-0.5C 43.6417,0.165957 40.6417,0.832624 37.5,1.5C 41.4735,2.77285 45.4735,3.93951 49.5,5C 51.6881,8.02182 54.3548,10.5218 57.5,12.5C 58.6139,13.723 58.7805,15.0563 58,16.5C 57.195,14.0989 56.3617,14.2656 55.5,17C 55.8333,17.3333 56.1667,17.6667 56.5,18C 55.552,18.4828 54.552,18.6495 53.5,18.5C 53.281,19.675 53.6143,20.675 54.5,21.5C 57.8885,24.1301 61.2218,24.4634 64.5,22.5C 64.5,24.1667 64.5,25.8333 64.5,27.5C 43.9829,18.4056 23.6495,9.07226 3.5,-0.5 Z M 31.5,10.5 C 32.6009,9.40168 33.9343,9.23502 35.5,10C 34.3181,11.7683 32.9848,11.9349 31.5,10.5 Z"/></g>
<g><path style="opacity:0.987" fill="#9bd9ea" d="M -0.5,-0.5 C 0.833333,-0.5 2.16667,-0.5 3.5,-0.5C 23.6495,9.07226 43.9829,18.4056 64.5,27.5C 64.5,28.5 64.5,29.5 64.5,30.5C 43.7624,38.8523 23.0957,47.1856 2.5,55.5C 1.5,55.5 0.5,55.5 -0.5,55.5C -0.5,54.8333 -0.5,54.1667 -0.5,53.5C 4.60706,45.4324 7.94039,36.599 9.5,27C 8.20369,18.2471 4.87036,10.4138 -0.5,3.5C -0.5,2.16667 -0.5,0.833333 -0.5,-0.5 Z"/></g>
<g><path style="opacity:0.203" fill="#fefffe" d="M -0.5,3.5 C 4.87036,10.4138 8.20369,18.2471 9.5,27C 7.94039,36.599 4.60706,45.4324 -0.5,53.5C -0.5,52.1667 -0.5,50.8333 -0.5,49.5C 4.25615,42.8041 7.25615,35.3041 8.5,27C 7.24616,19.3323 4.24616,12.499 -0.5,6.5C -0.5,5.5 -0.5,4.5 -0.5,3.5 Z"/></g>
<g><path style="opacity:0.055" fill="#fefffe" d="M 64.5,30.5 C 64.5,32.1667 64.5,33.8333 64.5,35.5C 63.8444,34.7222 63.0111,34.0556 62,33.5C 50.4179,37.7199 39.0846,42.3866 28,47.5C 28.0631,50.7672 26.5631,52.9339 23.5,54C 29.5182,54.6417 35.5182,54.4751 41.5,53.5C 44.4381,53.5676 47.1048,54.2342 49.5,55.5C 33.8333,55.5 18.1667,55.5 2.5,55.5C 23.0957,47.1856 43.7624,38.8523 64.5,30.5 Z"/></g>
<g><path style="opacity:0.004" fill="#fefffe" d="M 43.5,52.5 C 44.9464,51.3871 46.6131,51.2204 48.5,52C 46.8659,52.4935 45.1992,52.6602 43.5,52.5 Z"/></g>
</svg>
