<?xml version="1.0" encoding="UTF-8"?>
<!DOCTYPE svg PUBLIC "-//W3C//DTD SVG 1.1//EN" "http://www.w3.org/Graphics/SVG/1.1/DTD/svg11.dtd">
<svg xmlns="http://www.w3.org/2000/svg" version="1.1" width="180px" height="180px" style="shape-rendering:geometricPrecision; text-rendering:geometricPrecision; image-rendering:optimizeQuality; fill-rule:evenodd; clip-rule:evenodd" xmlns:xlink="http://www.w3.org/1999/xlink">
<g><path style="opacity:0.004" fill="#fefffe" d="M -0.5,-0.5 C -0.166667,-0.5 0.166667,-0.5 0.5,-0.5C 0.31468,0.170143 -0.0186536,0.170143 -0.5,-0.5 Z"/></g>
<g><path style="opacity:0.004" fill="#fefffe" d="M 177.5,-0.5 C 178.167,-0.5 178.833,-0.5 179.5,-0.5C 179.5,-0.166667 179.5,0.166667 179.5,0.5C 178.508,0.67158 177.842,0.338246 177.5,-0.5 Z"/></g>
<g><path style="opacity:1" fill="#408dd3" d="M 89.5,42.5 C 92.1596,39.887 93.4929,36.5537 93.5,32.5C 93.5,32.1667 93.5,31.8333 93.5,31.5C 94.4959,31.5858 95.3292,31.2524 96,30.5C 97.9599,26.0658 100.46,22.0658 103.5,18.5C 104.906,18.0269 105.573,17.0269 105.5,15.5C 108.391,14.9455 110.391,13.2789 111.5,10.5C 112.5,10.1667 113.167,9.5 113.5,8.5C 113.833,8.5 114.167,8.5 114.5,8.5C 116.819,8.00751 118.819,7.00751 120.5,5.5C 130.303,1.52129 139.97,1.85463 149.5,6.5C 142.5,5.61908 135.5,5.11908 128.5,5C 129.731,6.40476 131.064,7.57143 132.5,8.5C 131.209,8.26269 130.209,8.59603 129.5,9.5C 125.946,9.14968 122.612,9.81635 119.5,11.5C 110.767,17.7322 103.6,25.3988 98,34.5C 94.5112,42.992 91.5112,51.6587 89,60.5C 86.6416,43.2816 79.1416,28.7816 66.5,17C 62.9291,14.5794 59.2625,12.4127 55.5,10.5C 55.5,9.83333 55.1667,9.5 54.5,9.5C 54.1166,7.59151 53.1166,6.09151 51.5,5C 44.4774,4.37656 37.4774,4.54323 30.5,5.5C 42.8402,1.26711 54.8402,2.43378 66.5,9C 71.7,13.8653 76.5334,19.0319 81,24.5C 84.6735,30.177 87.5069,36.177 89.5,42.5 Z"/></g>
<g><path style="opacity:0.239" fill="#8db1da" d="M 150.5,6.5 C 153.443,6.98023 156.11,7.98023 158.5,9.5C 155.351,9.5848 152.684,8.5848 150.5,6.5 Z"/></g>
<g><path style="opacity:0.345" fill="#b1cae5" d="M 24.5,7.5 C 21.2964,9.57711 18.2964,11.9104 15.5,14.5C 17.0803,10.3374 20.0803,8.00405 24.5,7.5 Z"/></g>
<g><path style="opacity:1" fill="#3474bb" d="M 54.5,9.5 C 52.8333,9.5 51.1667,9.5 49.5,9.5C 45.8333,8.16667 42.1667,8.16667 38.5,9.5C 35.9407,9.19845 33.6074,9.53178 31.5,10.5C 28.4887,11.6693 25.822,13.336 23.5,15.5C 13.6568,21.5091 7.49011,30.1757 5,41.5C 3.14589,55.0627 4.81256,68.0627 10,80.5C 18.2605,97.7684 28.9272,113.435 42,127.5C 53.554,138.71 65.054,150.044 76.5,161.5C 81.1089,164.11 85.4422,167.11 89.5,170.5C 93.6931,167.14 98.0264,163.973 102.5,161C 111.31,151.858 120.477,143.025 130,134.5C 139.043,124.459 147.71,114.126 156,103.5C 164.374,91.3613 170.041,78.0279 173,63.5C 175.28,49.5746 172.946,36.5746 166,24.5C 164.961,23.2899 163.794,22.2899 162.5,21.5C 160.451,18.4503 157.784,16.117 154.5,14.5C 151.638,11.9901 148.304,10.3235 144.5,9.5C 142.833,9.5 141.167,9.5 139.5,9.5C 137.393,8.53178 135.059,8.19845 132.5,8.5C 131.064,7.57143 129.731,6.40476 128.5,5C 135.5,5.11908 142.5,5.61908 149.5,6.5C 149.833,6.5 150.167,6.5 150.5,6.5C 152.684,8.5848 155.351,9.5848 158.5,9.5C 163.442,13.6106 167.942,18.2773 172,23.5C 173.456,26.0756 174.623,28.7423 175.5,31.5C 178.413,47.2469 178.08,62.9135 174.5,78.5C 172.811,84.8725 170.311,90.8725 167,96.5C 163.655,100.531 160.821,104.864 158.5,109.5C 150.795,118.204 143.462,127.204 136.5,136.5C 135.833,136.5 135.5,136.833 135.5,137.5C 133.49,140.562 131.157,142.562 128.5,143.5C 126.833,144.5 125.5,145.833 124.5,147.5C 121.832,149.336 119.666,151.669 118,154.5C 117.667,154.167 117.333,153.833 117,153.5C 115.905,154.693 115.072,156.027 114.5,157.5C 112.183,158.82 110.183,160.486 108.5,162.5C 103.373,166.455 98.3732,170.622 93.5,175C 92.0993,175.41 90.766,175.91 89.5,176.5C 87.7837,174.975 85.7837,173.975 83.5,173.5C 83.5,172.833 83.1667,172.5 82.5,172.5C 82.0334,169.703 80.3667,168.369 77.5,168.5C 75.1415,166.471 72.8082,164.471 70.5,162.5C 69.7298,160.065 68.0632,158.731 65.5,158.5C 61.4031,153.947 57.0698,149.614 52.5,145.5C 52.1436,143.81 51.1436,142.81 49.5,142.5C 48.8333,142.5 48.5,142.167 48.5,141.5C 47.7377,139.738 46.4044,138.738 44.5,138.5C 41.925,135.681 39.5917,132.681 37.5,129.5C 36.5977,127.659 35.2644,126.326 33.5,125.5C 26.7982,118.455 20.7982,110.789 15.5,102.5C 15.7148,100.821 15.0481,99.8212 13.5,99.5C 13.5,99.1667 13.5,98.8333 13.5,98.5C 11.1753,94.1094 9.17526,89.4428 7.5,84.5C 6.73485,83.3881 5.73485,82.7214 4.5,82.5C 4.5,81.8333 4.5,81.1667 4.5,80.5C 4.57298,78.9731 3.90632,77.9731 2.5,77.5C 2.5,76.5 2.5,75.5 2.5,74.5C 2.66212,72.4727 2.49546,70.4727 2,68.5C 1.61742,67.944 1.11742,67.6107 0.5,67.5C 0.767809,65.901 0.434475,64.5676 -0.5,63.5C -0.5,56.5 -0.5,49.5 -0.5,42.5C 0.348893,35.9202 2.68223,29.9202 6.5,24.5C 9.55584,22.0515 11.8892,19.0515 13.5,15.5C 14.1667,15.1667 14.8333,14.8333 15.5,14.5C 18.2964,11.9104 21.2964,9.57711 24.5,7.5C 26.3024,6.5418 28.3024,5.87513 30.5,5.5C 37.4774,4.54323 44.4774,4.37656 51.5,5C 53.1166,6.09151 54.1166,7.59151 54.5,9.5 Z"/></g>
<g><path style="opacity:0.018" fill="#eaf2fa" d="M 113.5,8.5 C 113.167,9.5 112.5,10.1667 111.5,10.5C 110.833,10.5 110.167,10.5 109.5,10.5C 110.514,9.32627 111.847,8.6596 113.5,8.5 Z"/></g>
<g><path style="opacity:1" fill="#1e8ce9" d="M 129.5,9.5 C 130.209,8.59603 131.209,8.26269 132.5,8.5C 135.059,8.19845 137.393,8.53178 139.5,9.5C 138.761,9.36899 138.094,9.53566 137.5,10C 152.283,39.3051 147.949,65.3051 124.5,88C 110.273,97.9846 94.6061,100.985 77.5,97C 55.3201,88.8372 42.4868,73.0039 39,49.5C 37.7393,35.8078 40.0727,22.8078 46,10.5C 47.0113,9.66337 48.1779,9.33003 49.5,9.5C 51.1667,9.5 52.8333,9.5 54.5,9.5C 55.1667,9.5 55.5,9.83333 55.5,10.5C 53.8637,13.7726 52.1971,17.1059 50.5,20.5C 47.0275,24.3989 45.1941,29.0656 45,34.5C 43.7459,45.3086 45.4126,55.6419 50,65.5C 53.3995,68.6318 56.0662,72.2985 58,76.5C 72.6594,91.6634 89.9927,95.6634 110,88.5C 132.81,76.8871 142.476,58.2204 139,32.5C 137.434,24.0518 134.267,16.3852 129.5,9.5 Z"/></g>
<g><path style="opacity:1" fill="#1d86e2" d="M 38.5,9.5 C 42.1667,8.16667 45.8333,8.16667 49.5,9.5C 48.1779,9.33003 47.0113,9.66337 46,10.5C 40.0727,22.8078 37.7393,35.8078 39,49.5C 42.4868,73.0039 55.3201,88.8372 77.5,97C 94.6061,100.985 110.273,97.9846 124.5,88C 147.949,65.3051 152.283,39.3051 137.5,10C 138.094,9.53566 138.761,9.36899 139.5,9.5C 141.167,9.5 142.833,9.5 144.5,9.5C 157.191,36.3699 154.691,61.7032 137,85.5C 113.883,107.704 88.0496,111.204 59.5,96C 39.0116,79.8459 29.845,58.6793 32,32.5C 33.6152,24.8203 36.1152,17.4869 39.5,10.5C 39.3764,9.89333 39.0431,9.55999 38.5,9.5 Z"/></g>
<g><path style="opacity:1" fill="#1b80dd" d="M 38.5,9.5 C 39.0431,9.55999 39.3764,9.89333 39.5,10.5C 36.1152,17.4869 33.6152,24.8203 32,32.5C 29.845,58.6793 39.0116,79.8459 59.5,96C 88.0496,111.204 113.883,107.704 137,85.5C 154.691,61.7032 157.191,36.3699 144.5,9.5C 148.304,10.3235 151.638,11.9901 154.5,14.5C 165.058,50.3198 155.724,79.4865 126.5,102C 93.9879,118.697 65.4879,113.53 41,86.5C 31.4878,73.3014 26.3211,58.4681 25.5,42C 26.4837,31.258 28.4837,20.758 31.5,10.5C 33.6074,9.53178 35.9407,9.19845 38.5,9.5 Z"/></g>
<g><path style="opacity:0.11" fill="#deecf8" d="M 120.5,5.5 C 118.819,7.00751 116.819,8.00751 114.5,8.5C 115.911,6.46095 117.911,5.46095 120.5,5.5 Z"/></g>
<g><path style="opacity:1" fill="#2095f2" d="M 129.5,9.5 C 134.267,16.3852 137.434,24.0518 139,32.5C 142.476,58.2204 132.81,76.8871 110,88.5C 89.9927,95.6634 72.6594,91.6634 58,76.5C 56.0662,72.2985 53.3995,68.6318 50,65.5C 45.4126,55.6419 43.7459,45.3086 45,34.5C 45.1941,29.0656 47.0275,24.3989 50.5,20.5C 52.1971,17.1059 53.8637,13.7726 55.5,10.5C 59.2625,12.4127 62.9291,14.5794 66.5,17C 79.1416,28.7816 86.6416,43.2816 89,60.5C 91.5112,51.6587 94.5112,42.992 98,34.5C 103.6,25.3988 110.767,17.7322 119.5,11.5C 122.612,9.81635 125.946,9.14968 129.5,9.5 Z"/></g>
<g><path style="opacity:1" fill="#1a7bd7" d="M 31.5,10.5 C 28.4837,20.758 26.4837,31.258 25.5,42C 26.3211,58.4681 31.4878,73.3014 41,86.5C 65.4879,113.53 93.9879,118.697 126.5,102C 155.724,79.4865 165.058,50.3198 154.5,14.5C 157.784,16.117 160.451,18.4503 162.5,21.5C 170.401,66.887 153.401,98.387 111.5,116C 69.9323,122.927 40.7656,107.094 24,68.5C 19.5263,50.8607 19.3597,33.194 23.5,15.5C 25.822,13.336 28.4887,11.6693 31.5,10.5 Z"/></g>
<g><path style="opacity:0.773" fill="#88bbe5" d="M 109.5,10.5 C 110.167,10.5 110.833,10.5 111.5,10.5C 110.391,13.2789 108.391,14.9455 105.5,15.5C 107.207,14.1274 108.54,12.4607 109.5,10.5 Z"/></g>
<g><path style="opacity:1" fill="#1976d1" d="M 23.5,15.5 C 19.3597,33.194 19.5263,50.8607 24,68.5C 40.7656,107.094 69.9323,122.927 111.5,116C 153.401,98.387 170.401,66.887 162.5,21.5C 163.794,22.2899 164.961,23.2899 166,24.5C 172.946,36.5746 175.28,49.5746 173,63.5C 170.041,78.0279 164.374,91.3613 156,103.5C 147.71,114.126 139.043,124.459 130,134.5C 120.477,143.025 111.31,151.858 102.5,161C 98.0264,163.973 93.6931,167.14 89.5,170.5C 85.4422,167.11 81.1089,164.11 76.5,161.5C 65.054,150.044 53.554,138.71 42,127.5C 28.9272,113.435 18.2605,97.7684 10,80.5C 4.81256,68.0627 3.14589,55.0627 5,41.5C 7.49011,30.1757 13.6568,21.5091 23.5,15.5 Z"/></g>
<g><path style="opacity:0.282" fill="#d0e2f5" d="M 105.5,15.5 C 105.573,17.0269 104.906,18.0269 103.5,18.5C 103.427,16.9731 104.094,15.9731 105.5,15.5 Z"/></g>
<g><path style="opacity:0.698" fill="#9cbade" d="M 13.5,15.5 C 11.8892,19.0515 9.55584,22.0515 6.5,24.5C 8.11083,20.9485 10.4442,17.9485 13.5,15.5 Z"/></g>
<g><path style="opacity:0.855" fill="#a3c9eb" d="M 103.5,18.5 C 100.46,22.0658 97.9599,26.0658 96,30.5C 95.3292,31.2524 94.4959,31.5858 93.5,31.5C 95.3645,25.977 98.6978,21.6436 103.5,18.5 Z"/></g>
<g><path style="opacity:0.004" fill="#fefffe" d="M -0.5,34.5 C 0.833333,35.1667 0.833333,35.1667 -0.5,34.5 Z"/></g>
<g><path style="opacity:0.757" fill="#93bee7" d="M 93.5,32.5 C 93.4929,36.5537 92.1596,39.887 89.5,42.5C 90.5403,38.9581 91.8737,35.6248 93.5,32.5 Z"/></g>
<g><path style="opacity:0.758" fill="#7099cd" d="M 175.5,31.5 C 176.833,35.5 178.167,39.5 179.5,43.5C 179.5,49.8333 179.5,56.1667 179.5,62.5C 177.919,67.2711 176.752,72.2711 176,77.5C 175.617,78.056 175.117,78.3893 174.5,78.5C 178.08,62.9135 178.413,47.2469 175.5,31.5 Z"/></g>
<g><path style="opacity:0.727" fill="#8badd7" d="M 0.5,67.5 C 1.11742,67.6107 1.61742,67.944 2,68.5C 2.49546,70.4727 2.66212,72.4727 2.5,74.5C 1.38815,72.4006 0.721485,70.0673 0.5,67.5 Z"/></g>
<g><path style="opacity:0.004" fill="#fefffe" d="M 179.5,70.5 C 179.5,70.8333 179.5,71.1667 179.5,71.5C 178.83,71.0187 178.83,70.6853 179.5,70.5 Z"/></g>
<g><path style="opacity:0.004" fill="#fefffe" d="M 179.5,74.5 C 179.5,74.8333 179.5,75.1667 179.5,75.5C 178.83,75.0187 178.83,74.6853 179.5,74.5 Z"/></g>
<g><path style="opacity:0.004" fill="#fefffe" d="M 178.5,75.5 C 178.631,76.2389 178.464,76.9056 178,77.5C 177.308,76.5632 177.475,75.8966 178.5,75.5 Z"/></g>
<g><path style="opacity:0.106" fill="#a1bfe0" d="M 2.5,77.5 C 3.90632,77.9731 4.57298,78.9731 4.5,80.5C 3.09368,80.0269 2.42702,79.0269 2.5,77.5 Z"/></g>
<g><path style="opacity:0.165" fill="#7ca3d2" d="M 4.5,82.5 C 5.73485,82.7214 6.73485,83.3881 7.5,84.5C 9.17526,89.4428 11.1753,94.1094 13.5,98.5C 9.76011,93.6467 6.76011,88.3134 4.5,82.5 Z"/></g>
<g><path style="opacity:0.627" fill="#8fb5dd" d="M 13.5,99.5 C 15.0481,99.8212 15.7148,100.821 15.5,102.5C 14.5987,101.71 13.9321,100.71 13.5,99.5 Z"/></g>
<g><path style="opacity:0.761" fill="#a8c3e2" d="M 33.5,125.5 C 35.2644,126.326 36.5977,127.659 37.5,129.5C 35.2901,129.106 33.9568,127.773 33.5,125.5 Z"/></g>
<g><path style="opacity:0.004" fill="#fefffe" d="M 136.5,136.5 C 137.833,137.167 137.833,137.167 136.5,136.5 Z"/></g>
<g><path style="opacity:0.004" fill="#fefffe" d="M 135.5,137.5 C 135.833,137.5 136.167,137.5 136.5,137.5C 136.315,138.17 135.981,138.17 135.5,137.5 Z"/></g>
<g><path style="opacity:0.024" fill="#91b3da" d="M 44.5,138.5 C 46.4044,138.738 47.7377,139.738 48.5,141.5C 46.5956,141.262 45.2623,140.262 44.5,138.5 Z"/></g>
<g><path style="opacity:0.004" fill="#fefffe" d="M 128.5,143.5 C 129.833,144.167 129.833,144.167 128.5,143.5 Z"/></g>
<g><path style="opacity:0.145" fill="#98b8dd" d="M 49.5,142.5 C 51.1436,142.81 52.1436,143.81 52.5,145.5C 50.8564,145.19 49.8564,144.19 49.5,142.5 Z"/></g>
<g><path style="opacity:0.004" fill="#fefffe" d="M 124.5,147.5 C 125.833,148.167 125.833,148.167 124.5,147.5 Z"/></g>
<g><path style="opacity:0.004" fill="#fefffe" d="M 114.5,157.5 C 115.833,158.167 115.833,158.167 114.5,157.5 Z"/></g>
<g><path style="opacity:0.937" fill="#82a6d3" d="M 65.5,158.5 C 68.0632,158.731 69.7298,160.065 70.5,162.5C 68.2512,161.92 66.5846,160.587 65.5,158.5 Z"/></g>
<g><path style="opacity:0.004" fill="#fefffe" d="M 108.5,162.5 C 109.833,163.167 109.833,163.167 108.5,162.5 Z"/></g>
<g><path style="opacity:0.302" fill="#79a4d2" d="M 77.5,168.5 C 80.3667,168.369 82.0334,169.703 82.5,172.5C 80.8089,171.136 79.1423,169.803 77.5,168.5 Z"/></g>
<g><path style="opacity:0.439" fill="#9fbbdd" d="M 83.5,173.5 C 85.7837,173.975 87.7837,174.975 89.5,176.5C 88.6522,177.625 87.6522,177.625 86.5,176.5C 85.3065,175.728 84.3065,174.728 83.5,173.5 Z"/></g>
<g><path style="opacity:0.004" fill="#fefffe" d="M 86.5,176.5 C 85.8333,177.167 85.8333,177.167 86.5,176.5 Z"/></g>
<g><path style="opacity:0.004" fill="#fefffe" d="M 179.5,178.5 C 179.5,178.833 179.5,179.167 179.5,179.5C 178.83,179.019 178.83,178.685 179.5,178.5 Z"/></g>
</svg>
